<?xml version="1.0" encoding="UTF-8"?> <svg xmlns="http://www.w3.org/2000/svg" width="782" height="202" viewBox="0 0 782 202" fill="none"><path d="M49.6451 141.253C52.7303 141.253 55.6754 141.183 58.4802 141.043C61.285 140.903 63.5288 140.692 65.2117 140.412V116.66C63.9496 116.379 62.0563 116.099 59.532 115.819C57.0077 115.539 54.6937 115.399 52.5901 115.399C49.6451 115.399 46.8403 115.609 44.1757 116.029C41.6514 116.309 39.4075 116.94 37.4442 117.921C35.4808 118.902 33.9381 120.233 32.8162 121.915C31.6943 123.596 31.1333 125.698 31.1333 128.221C31.1333 133.125 32.7461 136.558 35.9716 138.52C39.3374 140.342 43.8952 141.253 49.6451 141.253ZM47.1207 49.6067C56.3766 49.6067 64.0898 50.6576 70.2604 52.7596C76.431 54.8616 81.3394 57.8744 84.9856 61.7981C88.7721 65.7218 91.4367 70.4863 92.9793 76.0916C94.522 81.6968 95.2933 87.9327 95.2933 94.7992V159.96C90.8056 160.941 84.5649 162.062 76.5712 163.324C68.5775 164.725 58.9009 165.426 47.5415 165.426C40.3892 165.426 33.868 164.795 27.9779 163.534C22.2281 162.273 17.2496 160.241 13.0423 157.438C8.83514 154.495 5.60961 150.712 3.36577 146.087C1.12192 141.463 0 135.788 0 129.061C0 122.615 1.26216 117.15 3.78649 112.666C6.45105 108.182 9.95706 104.608 14.3045 101.946C18.652 99.2834 23.6305 97.3916 29.2401 96.2705C34.8497 95.0094 40.6697 94.3788 46.7 94.3788C50.767 94.3788 54.3431 94.589 57.4284 95.0094C60.6539 95.2896 63.2484 95.71 65.2117 96.2705V93.3278C65.2117 88.0028 63.599 83.7288 60.3734 80.5057C57.1479 77.2827 51.5383 75.6712 43.5446 75.6712C38.2155 75.6712 32.9565 76.0916 27.7676 76.9324C22.5787 77.633 18.091 78.684 14.3045 80.0853L10.3077 54.8616C12.1308 54.3011 14.3746 53.7405 17.0392 53.18C19.844 52.4794 22.8592 51.9188 26.0847 51.4984C29.3102 50.9379 32.676 50.5175 36.182 50.2373C39.8282 49.8169 43.4745 49.6067 47.1207 49.6067Z" fill="#434343"></path><path d="M218.088 159.33C212.759 160.871 205.887 162.273 197.473 163.534C189.058 164.935 180.223 165.636 170.967 165.636C161.571 165.636 153.718 164.375 147.407 161.852C141.236 159.33 136.328 155.827 132.682 151.342C129.035 146.718 126.441 141.253 124.898 134.947C123.356 128.641 122.584 121.704 122.584 114.137V52.5494H153.928V110.354C153.928 120.443 155.26 127.73 157.925 132.214C160.589 136.699 165.568 138.941 172.86 138.941C175.104 138.941 177.488 138.871 180.013 138.73C182.537 138.45 184.781 138.17 186.744 137.89V52.5494H218.088V159.33Z" fill="#434343"></path><path d="M274.226 106.991C274.226 116.66 276.4 124.437 280.747 130.323C285.095 136.208 291.546 139.151 300.101 139.151C302.905 139.151 305.5 139.081 307.884 138.941C310.268 138.66 312.231 138.38 313.774 138.1V81.1363C311.811 79.8751 309.216 78.8241 305.991 77.9833C302.905 77.1426 299.75 76.7222 296.524 76.7222C281.659 76.7222 274.226 86.8117 274.226 106.991ZM345.118 159.54C342.313 160.381 339.087 161.222 335.441 162.062C331.795 162.763 327.938 163.394 323.871 163.954C319.945 164.515 315.878 164.935 311.67 165.215C307.603 165.636 303.677 165.846 299.89 165.846C290.775 165.846 282.641 164.515 275.488 161.852C268.336 159.19 262.306 155.406 257.397 150.502C252.489 145.457 248.702 139.431 246.038 132.425C243.514 125.278 242.251 117.29 242.251 108.462C242.251 99.4936 243.373 91.436 245.617 84.2893C247.861 77.0024 251.087 70.8366 255.294 65.7919C259.501 60.7471 264.62 56.8935 270.65 54.231C276.821 51.5685 283.833 50.2373 291.686 50.2373C296.034 50.2373 299.89 50.6577 303.256 51.4984C306.762 52.3392 310.268 53.5304 313.774 55.0718V5.04474L345.118 0V159.54Z" fill="#434343"></path><path d="M416.749 141.253C419.834 141.253 422.779 141.183 425.584 141.043C428.389 140.903 430.632 140.692 432.315 140.412V116.66C431.053 116.379 429.16 116.099 426.636 115.819C424.111 115.539 421.797 115.399 419.694 115.399C416.749 115.399 413.944 115.609 411.279 116.029C408.755 116.309 406.511 116.94 404.548 117.921C402.584 118.902 401.042 120.233 399.92 121.915C398.798 123.596 398.237 125.698 398.237 128.221C398.237 133.125 399.85 136.558 403.075 138.52C406.441 140.342 410.999 141.253 416.749 141.253ZM414.224 49.6067C423.48 49.6067 431.193 50.6576 437.364 52.7596C443.535 54.8616 448.443 57.8744 452.089 61.7981C455.876 65.7218 458.54 70.4863 460.083 76.0916C461.626 81.6968 462.397 87.9327 462.397 94.7992V159.96C457.909 160.941 451.668 162.062 443.675 163.324C435.681 164.725 426.004 165.426 414.645 165.426C407.493 165.426 400.972 164.795 395.081 163.534C389.332 162.273 384.353 160.241 380.146 157.438C375.939 154.495 372.713 150.712 370.469 146.087C368.225 141.463 367.104 135.788 367.104 129.061C367.104 122.615 368.366 117.15 370.89 112.666C373.555 108.182 377.061 104.608 381.408 101.946C385.756 99.2834 390.734 97.3916 396.344 96.2705C401.953 95.0094 407.773 94.3788 413.804 94.3788C417.871 94.3788 421.447 94.589 424.532 95.0094C427.757 95.2896 430.352 95.71 432.315 96.2705V93.3278C432.315 88.0028 430.703 83.7288 427.477 80.5057C424.251 77.2827 418.642 75.6712 410.648 75.6712C405.319 75.6712 400.06 76.0916 394.871 76.9324C389.682 77.633 385.195 78.684 381.408 80.0853L377.411 54.8616C379.234 54.3011 381.478 53.7405 384.143 53.18C386.948 52.4794 389.963 51.9188 393.188 51.4984C396.414 50.9379 399.78 50.5175 403.286 50.2373C406.932 49.8169 410.578 49.6067 414.224 49.6067Z" fill="#434343"></path><path d="M561.631 108.672C561.631 99.0031 559.457 91.2959 555.11 85.5505C550.762 79.6649 544.311 76.7222 535.757 76.7222C532.952 76.7222 530.357 76.8623 527.973 77.1426C525.589 77.2827 523.626 77.4929 522.083 77.7732V134.316C524.047 135.578 526.571 136.629 529.656 137.469C532.882 138.31 536.107 138.73 539.333 138.73C554.198 138.73 561.631 128.711 561.631 108.672ZM593.606 107.831C593.606 116.379 592.554 124.157 590.45 131.163C588.347 138.17 585.262 144.196 581.195 149.24C577.128 154.285 572.079 158.209 566.049 161.011C560.018 163.814 553.076 165.215 545.223 165.215C540.876 165.215 536.809 164.795 533.022 163.954C529.236 163.113 525.589 161.922 522.083 160.381V202H490.74V56.333C493.544 55.4922 496.77 54.7215 500.416 54.0208C504.062 53.18 507.849 52.4794 511.776 51.9188C515.843 51.3583 519.91 50.9379 523.977 50.6576C528.184 50.2373 532.181 50.027 535.967 50.027C545.083 50.027 553.217 51.4284 560.369 54.231C567.521 56.8935 573.551 60.7471 578.46 65.7919C583.368 70.6965 587.085 76.7222 589.609 83.8689C592.274 91.0156 593.606 99.0031 593.606 107.831Z" fill="#434343"></path><path d="M649.039 163.113H617.695V52.5494H649.039V163.113ZM651.984 20.5994C651.984 26.3448 650.091 30.8991 646.304 34.2622C642.658 37.4853 638.311 39.0968 633.262 39.0968C628.213 39.0968 623.796 37.4853 620.009 34.2622C616.363 30.8991 614.54 26.3448 614.54 20.5994C614.54 14.854 616.363 10.3697 620.009 7.14672C623.796 3.78356 628.213 2.10198 633.262 2.10198C638.311 2.10198 642.658 3.78356 646.304 7.14672C650.091 10.3697 651.984 14.854 651.984 20.5994Z" fill="#434343"></path><path d="M782 107.621C782 116.309 780.738 124.297 778.214 131.584C775.689 138.731 772.043 144.896 767.275 150.081C762.507 155.126 756.757 159.05 750.025 161.852C743.434 164.655 736.001 166.056 727.727 166.056C719.593 166.056 712.16 164.655 705.429 161.852C698.838 159.05 693.158 155.126 688.39 150.081C683.621 144.896 679.905 138.731 677.24 131.584C674.576 124.297 673.244 116.309 673.244 107.621C673.244 98.9331 674.576 91.0156 677.24 83.8689C680.045 76.7222 683.832 70.6264 688.6 65.5817C693.508 60.5369 699.258 56.6133 705.85 53.8106C712.581 51.008 719.874 49.6067 727.727 49.6067C735.721 49.6067 743.013 51.008 749.604 53.8106C756.336 56.6133 762.086 60.5369 766.854 65.5817C771.622 70.6264 775.339 76.7222 778.003 83.8689C780.668 91.0156 782 98.9331 782 107.621ZM750.025 107.621C750.025 97.9521 748.062 90.385 744.135 84.9199C740.349 79.3146 734.879 76.512 727.727 76.512C720.575 76.512 715.035 79.3146 711.109 84.9199C707.182 90.385 705.218 97.9521 705.218 107.621C705.218 117.29 707.182 124.998 711.109 130.743C715.035 136.348 720.575 139.151 727.727 139.151C734.879 139.151 740.349 136.348 744.135 130.743C748.062 124.998 750.025 117.29 750.025 107.621Z" fill="#434343"></path></svg> 