<?xml version="1.0" encoding="UTF-8"?> <svg xmlns="http://www.w3.org/2000/svg" width="782" height="99" viewBox="0 0 782 99" fill="none"><path d="M457.439 12.3496C439.78 12.3496 427.996 26.2887 427.996 45.4355C427.996 63.7471 438.769 75.2559 455.912 75.2559C467.072 75.2559 475.788 69.6802 478.992 64.3418L477.38 62.4512C473.867 67.2671 466.295 70.7871 458.543 70.7871C444.691 70.7871 436.396 59.0481 436.396 41.5684C436.396 24.7246 444.467 15.2715 457.694 15.2715C467.914 15.2715 473.813 20.5549 476.701 30.9121H478.483L477.889 13.0371H476.192C475.571 14.2918 474.515 14.8418 472.967 14.8418C469.451 14.8418 466.223 12.3496 457.439 12.3496ZM20.704 13.8105V15.6152C23.8028 16.2477 28.3102 17.0418 28.0013 23.9512L26.1346 60.6465C25.7205 68.4909 23.5279 71.3646 18.1584 71.9902V73.7949H37.1654V71.9902C31.3818 70.9452 29.7289 68.9034 30.0378 61.1621L31.7348 24.2949L50.7418 73.3652H53.1176L71.7003 24.2949L73.4822 63.5684C73.7945 69.6424 72.1551 71.4677 67.7122 71.9902V73.7949H89.0951V71.9902C83.824 71.4677 81.7706 68.9756 81.4583 61.7637L79.6764 24.209C79.4728 18.7674 81.7333 16.4574 86.3798 16.0449V14.1543H71.6155L54.1359 60.3027L36.3169 13.8105H20.704ZM126.515 13.8105V15.6152C132.923 16.1377 133.303 17.4887 133.303 32.9746V53.6855C133.303 70.4296 132.618 71.4677 126.515 71.9902V73.7949H147.728V71.9902C141.008 71.0552 141.025 70.5602 141.025 52.5684V49.2168L143.825 46.0371C150.851 54.8268 158.403 64.4827 166.565 73.7949H180.651H200.167V71.9902C194.38 71.5777 194.227 71.6843 194.227 58.498V36.4121H180.396V38.2168C186.383 38.4299 187.1 38.7496 187.1 49.2168V58.4121C187.1 71.5654 186.966 71.6887 180.651 71.9902C177.345 71.6774 174.036 70.739 163.595 58.498C159.57 53.6821 152.924 45.5799 149.001 40.4512L161.644 26.1855C167.842 19.2762 171.212 15.8284 177.002 15.6152V13.8105H157.147V15.6152C159.73 16.1377 160.711 17.0865 160.711 18.9668C160.711 20.2249 160.459 22.4318 156.638 26.6152L141.025 44.0605V32.8027C141.025 17.4268 141.731 16.4505 147.728 15.6152V13.8105H126.515ZM190.324 16.2168C187.636 16.2168 185.657 18.3137 185.657 21.0293C185.657 23.7518 187.636 25.8418 190.324 25.8418C193.012 25.8418 195.076 23.7518 195.076 21.0293C195.076 18.3137 193.012 16.2168 190.324 16.2168ZM385.23 16.9043C379.657 16.9043 373.86 20.4277 373.86 28.1621C373.86 31.0977 374.769 33.7824 376.321 36.9277C368.674 39.334 364.611 46.0509 364.611 53.6855C364.611 67.604 375.065 75.1699 386.842 75.1699C394.177 75.1699 399.964 72.8152 405.34 68.209C408.642 70.6221 411.945 72.9562 413.91 73.7949H426.638V71.9902C422.501 71.5743 416.272 68.1437 409.668 63.2246C412.04 59.2509 412.614 53.5034 413.231 49.2168C413.754 45.5559 416.405 45.6452 418.153 45.4355V43.8027H401.437V45.4355C405.364 45.958 409.158 46.4771 409.158 52.6543C409.158 55.8993 408.656 59.134 407.207 61.334C392.538 49.7187 379.036 33.638 379.036 25.584C379.036 21.6034 381.408 19.7402 385.23 19.7402C389.985 19.7402 394.516 22.9096 396.685 29.1934H398.297L398.128 17.9355H396.431C396.332 18.6677 395.65 19.1387 395.243 19.1387C393.176 19.1387 390.301 16.9043 385.23 16.9043ZM264.824 35.6387C257.181 35.6387 252.775 40.458 252.775 46.209C252.775 58.7696 273.989 56.2362 273.989 66.4902C273.989 69.9415 270.784 71.9902 265.418 71.9902C260.147 71.9902 255.66 69.1509 254.218 62.4512H252.012C252.012 65.1771 252.429 70.2027 252.945 71.0449C254.394 73.4512 260.307 74.7402 265.164 74.7402C273.944 74.7402 279.334 69.5702 279.334 63.3965C279.334 49.5812 258.291 51.7571 258.291 42.8574C258.291 39.719 261.077 38.1309 264.485 38.1309C271.406 38.1309 274.474 44.6105 275.092 46.8105H276.704C276.704 41.369 276.103 37.9452 275.686 37.5293C275.271 37.1099 269.99 35.6387 264.824 35.6387ZM303.687 35.6387C292.938 35.6387 285.698 44.3115 285.698 56.3496C285.698 65.7615 290.453 74.8262 303.263 74.8262C308.527 74.8262 314.857 72.6743 318.366 68.8105L317.518 67.0059C314.11 69.0993 310.363 70.0996 306.742 70.0996C296.512 70.0996 292.262 60.7874 292.571 52.3105H318.366C318.78 43.7305 314.324 35.6387 303.687 35.6387ZM503.175 35.6387C491.598 35.6387 483.404 44.1568 483.404 55.1465C483.404 62.4718 486.286 68.5562 491.55 71.9043C494.656 73.8877 498.668 74.7402 503.005 74.7402C514.474 74.7402 522.691 66.3424 522.691 55.1465C522.691 47.9277 519.816 41.9052 514.545 38.5605C511.446 36.5702 507.513 35.6387 503.175 35.6387ZM110.648 35.8965C99.5896 35.8965 91.3012 45.9443 91.3012 57.0371C91.3012 65.8268 96.1582 74.8262 108.866 74.8262C114.13 74.8262 120.46 72.6777 123.969 68.8105L123.121 67.0059C119.713 69.0959 115.959 70.0996 112.345 70.0996C102.115 70.0996 98.2591 61.3477 98.2591 52.1387C98.2591 47.8521 99.2807 44.7446 101.144 42.8574C102.895 41.0768 105.373 40.4512 107.847 40.4512C111.462 40.4512 115.627 41.8846 118.624 45.8652L119.303 45.7793C120.44 44.3184 121.57 41.3655 121.678 39.1621C119.095 37.0721 115.192 35.8965 110.648 35.8965ZM230.374 35.8965C225.619 35.8965 220.62 38.1893 216.798 43.1152V36.4121H202.967V38.2168C208.958 38.4265 209.67 38.7496 209.67 49.2168V58.4121C209.67 71.698 209.643 71.6774 203.137 71.9902V73.7949H222.823V71.9902C217.029 71.5777 216.798 71.6809 216.798 58.498V48.3574C216.798 44.8993 221.485 40.623 227.065 40.623C231.606 40.623 235.211 42.6237 235.211 51.623V59.0996C235.211 71.5571 234.797 71.6774 229.526 71.9902V73.7949H248.872V71.9902C242.366 71.6774 242.339 71.5571 242.339 59.0996V50.7637C242.339 39.4612 236.263 35.8965 230.374 35.8965ZM552.898 35.8965C547.834 35.8965 542.893 39.1346 540.001 43.1152V36.4121H526.17V38.2168C532.171 38.4265 532.873 38.7496 532.873 49.2168V59.873C532.873 71.9112 532.704 71.8905 526.509 71.9902V73.7949H546.025V71.9902C540.551 71.4677 540.001 71.4574 540.001 59.5293V48.7012C540.001 44.8305 544.851 40.623 550.013 40.623C555.593 40.623 557.99 43.7684 557.99 51.1934V58.7559C557.99 71.1068 557.721 71.6774 552.559 71.9902V73.7949H570.887V71.9902C564.791 71.4677 564.947 70.9246 564.947 59.0996V48.6152C564.947 44.8477 569.655 40.623 575.13 40.623C579.783 40.623 582.766 43.4521 582.766 51.1934V59.7871C582.766 71.0896 582.709 71.5777 577.336 71.9902V73.7949H596.767V71.9902C590.054 71.6774 590.318 70.7562 590.318 59.873V50.1621C590.318 39.798 584.779 35.8965 578.269 35.8965C572.387 35.8965 567.591 39.2515 564.184 44.0605C562.735 38.9352 559.099 35.8965 552.898 35.8965ZM623.581 35.8965C618.208 35.8965 613.846 38.4402 610.853 41.998V36.4121H597.361V38.2168C603.043 38.4265 603.725 38.7771 603.725 51.0215V76.5449C603.725 89.8377 604.02 90.8415 597.616 91.1543V92.959H617.386V91.1543C610.364 90.9515 610.853 89.7759 610.853 75.8574V70.7871C613.643 73.6127 618.045 74.7402 621.968 74.7402C633.125 74.7402 640.127 66.2771 640.127 54.9746C640.127 44.0949 633.182 35.8965 623.581 35.8965ZM659.643 35.8965C655.611 35.8965 649.695 37.3677 646.491 40.1934C646.698 41.9705 648.259 45.4218 649.291 46.4668L650.224 46.2949C651.874 42.2146 654.694 39.248 659.134 39.248C663.994 39.248 666.007 42.7302 666.007 46.8105V51.1074C666.007 53.933 653.673 54.4624 648.612 58.7559C646.854 60.3234 645.557 62.3102 645.557 65.0293C645.557 70.8902 649.651 74.7402 655.74 74.7402C659.561 74.7402 662.854 73.458 666.261 69.584C666.777 72.303 669.01 73.7949 672.625 73.7949H681.365H700.457V71.9902C694.67 71.5777 694.432 71.6809 694.432 58.498V48.3574C694.432 44.8993 699.126 40.623 704.699 40.623C709.248 40.623 712.845 42.6237 712.845 51.623V59.0996C712.845 71.5571 712.424 71.6774 707.16 71.9902V73.7949H726.506V71.9902C719.993 71.6774 719.973 71.5571 719.973 59.0996V50.7637C719.973 39.4612 713.904 35.8965 708.009 35.8965C703.26 35.8965 698.254 38.1893 694.432 43.1152V36.4121H680.601V38.2168C686.592 38.4265 687.305 38.7496 687.305 49.2168V58.4121C687.305 71.698 687.193 71.6774 680.686 71.9902H679.159C673.993 71.9902 673.389 70.2234 673.389 62.7949V50.248C673.389 47.8452 673.134 45.6659 672.625 43.8887C670.867 38.0277 666.149 35.8965 659.643 35.8965ZM320.148 36.9277V38.7324C324.381 38.9421 324.734 39.5471 330.415 52.3105L340.089 73.9668C336.783 82.5468 331.607 87.2012 321.166 89.6074C321.689 91.388 323.62 94.5059 324.645 95.4512C338.392 89.7999 341.09 80.5806 345.943 66.6621L353.241 45.5215C354.89 40.7055 357.538 38.7324 360.114 38.7324V36.9277H346.792V38.7324C349.999 38.9421 351.683 40.7434 350.441 44.4043L343.313 65.6309L336.44 49.2168C334.587 44.7205 333.894 42.964 333.894 41.3965C333.894 39.9287 334.692 39.0521 337.373 38.7324V36.9277H320.148ZM723.876 36.9277V38.7324C728.108 38.9421 728.546 39.5471 734.228 52.3105L743.816 73.9668C740.507 82.5468 735.331 87.2012 724.894 89.6074C725.414 91.388 727.345 94.5059 728.373 95.4512C742.119 89.7999 744.818 80.5806 749.671 66.6621L757.053 45.5215C758.703 40.7055 761.262 38.7324 763.842 38.7324V36.9277H750.52V38.7324C753.727 38.9421 755.496 40.7434 754.253 44.4043L747.126 65.6309L740.168 49.2168C738.308 44.7205 737.622 42.964 737.622 41.3965C737.622 39.9287 738.42 39.0521 741.101 38.7324V36.9277H723.876ZM302.244 38.7324C308.025 38.7324 311.561 42.5687 311.663 49.4746H292.656C293.274 42.5687 296.356 38.7324 302.244 38.7324ZM502.157 38.7324C508.768 38.7324 515.309 45.2121 515.309 57.5527C515.309 66.2393 511.521 71.5605 503.769 71.5605C497.055 71.5605 490.786 65.318 490.786 52.6543C490.786 43.6549 495.019 38.7324 502.157 38.7324ZM377.678 39.6777C382.847 48.9899 392.497 58.8727 402.625 66.4043C399.519 68.814 394.299 69.498 390.067 69.498C379.216 69.498 370.635 61.7293 370.635 51.3652C370.635 44.8787 373.439 40.8293 377.678 39.6777ZM620.271 40.623C627.908 40.623 632.66 46.398 632.66 55.9199C632.66 65.6515 628.658 71.9043 621.12 71.9043C616.263 71.9043 610.853 69.1199 610.853 65.459V46.8965C610.853 43.758 615.312 40.623 620.271 40.623ZM666.007 54.6309V64.9434C666.007 68.0818 661.93 70.6152 658.625 70.6152C655.526 70.6152 652.939 68.6352 652.939 64.3418C652.939 56.7071 660.742 57.5596 666.007 54.6309Z" fill="black"></path></svg> 