<?xml version="1.0" encoding="UTF-8"?> <svg xmlns="http://www.w3.org/2000/svg" width="432" height="546" viewBox="0 0 432 546" fill="none"><g clip-path="url(#clip0)"><g clip-path="url(#clip1)"><path d="M412.729 19.3493V411.398H19.9716V19.3493H412.729ZM432 0.113281H0.700775V430.634H432V0.113281Z" fill="black"></path><path d="M329.342 209.941H100.083V229.809H329.342V209.941Z" fill="black"></path><path d="M329.342 105.645H100.083V125.513H329.342V105.645Z" fill="black"></path><path d="M329.351 314.238H110.04V334.106H329.351V314.238Z" fill="black"></path><path d="M329.351 209.941H309.447V334.298H329.351V209.941Z" fill="black"></path><path d="M119.987 105.645H100.083V230.001H119.987V105.645Z" fill="black"></path><path d="M321.505 131.725C330.688 131.725 338.133 124.294 338.133 115.127C338.133 105.96 330.688 98.5293 321.505 98.5293C312.321 98.5293 304.877 105.96 304.877 115.127C304.877 124.294 312.321 131.725 321.505 131.725Z" fill="black"></path><path d="M216.461 236.579C225.644 236.579 233.088 229.148 233.088 219.981C233.088 210.814 225.644 203.383 216.461 203.383C207.277 203.383 199.833 210.814 199.833 219.981C199.833 229.148 207.277 236.579 216.461 236.579Z" fill="black"></path><path d="M118.959 340.774C128.143 340.774 135.587 333.343 135.587 324.176C135.587 315.009 128.143 307.578 118.959 307.578C109.776 307.578 102.331 315.009 102.331 324.176C102.331 333.343 109.776 340.774 118.959 340.774Z" fill="black"></path><path d="M2.93069 541.707L4.98625 535.946C8.06958 537.888 12.6946 539.426 16.6405 539.426C20.4121 539.426 23.8349 537.997 23.8349 533.949C23.8349 529.9 20.1827 528.416 15.7228 526.19C9.7856 523.277 4.98625 520.603 4.98625 514.099C4.98625 507.082 10.639 502.805 18.4666 502.805C22.0088 502.805 25.9547 503.657 29.6621 505.424L28.0653 511.699C24.3488 509.647 21.1554 508.795 18.641 508.795C14.5849 508.795 12.0155 510.563 12.0155 514.099C12.0155 518.203 15.4475 519.458 19.8982 521.629C26.643 524.825 30.8091 527.5 30.8091 533.949C30.8091 542.101 24.0644 545.582 16.5304 545.582C11.731 545.582 6.63803 544.162 2.93069 541.707Z" fill="black"></path><path d="M84.9052 528.646V545.015H78.2797V528.591L64.4506 503.383H72.2231L81.5924 522.546L91.3012 503.383H98.7893L84.9052 528.646Z" fill="black"></path><path d="M167.687 503.383V545.867H167.118L140.497 518.148V545.006H133.871V502.521H134.44L161.061 530.634V503.373H167.687V503.383Z" fill="black"></path><path d="M230.014 536.23H213.102L209.45 545.014H202.824L221.104 502.246H222.022L240.301 545.014H233.676L230.014 536.23ZM221.554 515.592L215.497 530.303H227.555L221.554 515.592Z" fill="black"></path><path d="M303.766 517.929C303.766 526.713 298.224 532.695 290.341 532.695H282.055V545.015H275.429V503.383H290.112C298.104 503.383 303.766 509.144 303.766 517.929ZM296.737 517.984C296.737 512.506 293.369 509.319 288.396 509.319H282.055V526.768H288.625C293.479 526.768 296.737 523.397 296.737 517.984Z" fill="black"></path><path d="M337.637 541.707L339.693 535.946C342.776 537.888 347.401 539.426 351.347 539.426C355.119 539.426 358.542 537.997 358.542 533.949C358.542 529.9 354.889 528.416 350.429 526.19C344.492 523.277 339.693 520.603 339.693 514.099C339.693 507.082 345.346 502.805 353.173 502.805C356.715 502.805 360.661 503.657 364.369 505.424L362.772 511.699C359.055 509.647 355.862 508.795 353.348 508.795C349.292 508.795 346.722 510.563 346.722 514.099C346.722 518.203 350.145 519.458 354.605 521.629C361.35 524.825 365.516 527.5 365.516 533.949C365.516 542.101 358.771 545.582 351.237 545.582C346.438 545.582 341.354 544.162 337.637 541.707Z" fill="black"></path><path d="M403.332 503.383H427.614V509.309H409.958V520.833H426.182V526.704H409.958V539.079H427.898V545.006H403.332V503.383Z" fill="black"></path></g></g><defs><clipPath id="clip0"><rect x="0.700775" y="0.113281" width="431.299" height="545.754" fill="white"></rect></clipPath><clipPath id="clip1"><rect x="0.700775" y="0.113281" width="431.299" height="545.754" fill="white"></rect></clipPath></defs></svg> 