<?xml version="1.0" encoding="UTF-8"?> <svg xmlns="http://www.w3.org/2000/svg" width="782" height="116" viewBox="0 0 782 116" fill="none"><g clip-path="url(#clip0)"><path d="M9.49954 30.3898C10.2595 24.4601 12.5394 19.6422 16.3392 15.9361C19.759 12.6006 23.9388 10.377 29.2585 9.63578C29.2585 9.63578 30.3985 9.63578 30.7785 9.26518C31.9184 8.15336 33.4383 7.41214 34.5783 6.30032L35.3382 5.55911C36.4782 4.81789 37.9981 3.70607 39.138 2.96486L39.898 2.59425C41.0379 1.85304 42.5579 1.11182 44.0778 0.370607C41.4179 0.370607 38.3781 0 35.7182 0C25.0787 0 16.3392 3.33546 9.87952 9.63578C7.97961 11.1182 6.45969 13.3419 5.31975 15.1949C4.93977 15.5655 4.93977 15.9361 4.55979 16.3067C4.17981 17.0479 3.79983 17.7891 3.41985 18.5304C2.65988 20.3834 1.89992 22.607 1.13996 24.8307V25.2013C0.759982 26.3131 0.759982 27.4249 0.380001 28.5367C0.380001 29.6486 2.03929e-05 30.7604 2.03929e-05 31.8722C-0.37996 35.5783 2.03787e-05 39.2843 0.759982 43.361C3.41985 38.9137 6.07971 34.4665 9.49954 30.3898Z" fill="black"></path><path d="M103.355 40.7672C102.975 40.3966 102.975 40.3966 102.595 40.026L102.215 39.2848C101.835 38.5435 101.075 37.8023 100.695 37.0611V36.6905C97.655 32.6138 94.2352 28.9078 90.8154 25.5723C88.1555 22.978 85.4957 20.3838 82.4558 18.1602C82.0758 18.1602 81.6958 18.1602 81.6958 18.1602C80.5559 18.1602 79.416 18.1602 78.276 18.5308H77.5161C76.3761 18.5308 74.8562 18.9014 73.7163 19.272H73.3363C71.8164 19.6426 70.6764 20.0132 69.1565 20.3838C80.1759 27.4253 87.7755 35.2081 89.6754 37.8023L90.0554 38.1729C93.0953 42.2496 101.835 52.6266 106.015 65.9685C106.395 67.0803 106.395 67.8215 106.775 68.9333C106.775 69.3039 106.775 69.6745 107.155 70.4158C107.155 71.157 107.535 71.8982 107.535 72.6394C109.054 83.387 106.775 92.2816 101.075 97.8407C97.2751 101.547 92.3353 103.77 86.2556 104.512C82.0758 107.847 77.5161 110.441 72.9563 113.036C74.4762 113.406 75.9961 113.406 77.1361 113.406H77.896C79.416 113.406 80.5559 113.406 81.6958 113.406C90.0554 113.406 97.2751 111.553 102.975 107.476C110.954 101.917 115.134 94.5052 116.654 83.7576C117.794 74.1218 115.134 57.4445 103.355 40.7672Z" fill="black"></path><path d="M20.519 67.4512C18.999 71.5279 18.619 75.6045 18.619 79.3106C18.619 79.6812 18.619 79.6812 18.619 80.0518C20.8989 83.0167 23.5588 85.6109 26.2187 88.2052C28.8785 90.7994 31.5384 93.3937 34.5782 95.6173C34.9582 95.6173 35.3382 95.6173 35.3382 95.6173C39.138 95.6173 42.9378 94.8761 47.1176 93.7643C41.7979 90.4288 36.8581 86.3521 32.2983 81.9048C28.1186 77.4576 24.3188 72.6397 20.519 67.4512Z" fill="black"></path><path d="M90.4357 88.2045C91.9556 86.722 93.0955 85.6102 94.6155 84.1278C95.7554 83.016 96.8953 81.5336 98.0353 80.4217C98.0353 78.5687 98.0353 76.3451 97.6553 74.492C97.6553 73.7508 97.2753 73.3802 97.2753 72.639C97.2753 72.2684 97.2753 71.8978 96.8953 71.5272C96.5154 70.7859 96.5154 69.6741 96.1354 68.9329C96.1354 68.5623 95.7554 68.1917 95.7554 67.8211C95.7554 68.1917 95.3754 68.1917 95.3754 68.5623C91.9556 73.3802 88.1558 77.8275 83.976 81.9042C76.7564 88.9457 68.0168 94.8754 59.2773 98.9521C52.8176 101.917 46.7379 103.77 40.6582 104.511C38.7583 104.882 37.2384 104.882 35.7185 104.882C27.7389 104.882 21.2792 102.658 16.3395 97.8403C11.7797 93.393 9.11983 86.722 9.11983 79.3099C9.11983 77.8275 9.11983 75.9744 9.49981 74.1214C10.2598 68.1917 12.1597 62.262 15.1995 55.9617C19.3793 47.4377 25.459 39.2843 32.6786 32.2428C47.1179 18.1597 65.7369 9.26518 80.9361 9.26518C88.9157 9.26518 95.3754 11.4888 100.315 16.3067C104.115 20.0128 106.395 24.8307 107.155 30.3898C107.535 30.7604 107.535 31.131 107.915 31.5016L108.295 31.8722C109.055 32.6134 109.435 33.3546 110.195 34.0958L111.335 35.5783C112.855 37.8019 114.374 40.3962 115.894 42.9904C118.174 29.278 115.134 17.7891 106.775 9.63578C100.315 3.33546 91.5756 0 80.9361 0C63.0771 0 42.5581 9.63578 26.219 25.5719C21.6592 30.0192 17.0994 35.2077 13.6796 40.3962C9.87979 45.9553 6.83994 51.885 4.56006 57.8147C-2.65957 76.3451 -0.759667 93.7636 9.87979 104.141C16.3395 110.441 25.079 113.776 35.7185 113.776C42.5581 113.776 50.1577 112.294 57.7573 109.329C63.837 107.105 69.5367 104.141 75.2364 100.435C80.5562 97.099 85.4959 92.6518 90.4357 88.2045Z" fill="black"></path><path d="M199.11 27.4258H166.431C166.051 27.4258 166.051 27.4258 166.051 27.7964V51.5153C166.051 51.8859 166.051 51.8859 166.431 51.8859H187.71C188.47 51.8859 188.85 52.2565 188.85 52.9977V60.0392C188.85 60.7804 188.47 61.1511 187.71 61.1511H166.431C166.051 61.1511 166.051 61.1511 166.051 61.5217V85.6111C166.051 85.9817 166.051 85.9817 166.431 85.9817H199.11C199.87 85.9817 200.25 86.3523 200.25 87.0935V94.1351C200.25 94.8763 199.87 95.2469 199.11 95.2469H156.552C155.792 95.2469 155.412 94.8763 155.412 94.1351V19.6431C155.412 18.9019 155.792 18.5312 156.552 18.5312H199.11C199.87 18.5312 200.25 18.9019 200.25 19.6431V26.6846C200.25 27.0552 199.87 27.4258 199.11 27.4258Z" fill="black"></path><path d="M248.887 43.3609C251.927 46.6963 253.447 51.1436 253.447 57.0733V94.134C253.447 94.8752 253.067 95.2459 252.307 95.2459H243.947C243.187 95.2459 242.808 94.8752 242.808 94.134V58.5558C242.808 55.2203 242.048 52.626 240.148 50.4024C238.248 48.5494 235.968 47.4375 232.928 47.4375C229.888 47.4375 227.228 48.5494 225.708 50.4024C223.808 52.2554 223.049 55.2203 223.049 58.5558V93.7634C223.049 94.5046 222.669 94.8752 221.909 94.8752H213.549C212.789 94.8752 212.409 94.5046 212.409 93.7634V40.396C212.409 39.6548 212.789 39.2842 213.549 39.2842H221.909C222.669 39.2842 223.049 39.6548 223.049 40.396V43.7315C223.049 44.1021 223.049 44.1021 223.049 44.1021C223.049 44.1021 223.428 44.1021 223.428 43.7315C226.468 40.0254 230.648 38.543 236.348 38.543C241.668 38.543 245.847 40.0254 248.887 43.3609Z" fill="black"></path><path d="M291.065 47.4376H281.186C280.806 47.4376 280.806 47.4376 280.806 47.8082V77.8274C280.806 80.7922 281.565 83.0159 282.705 84.1277C283.845 85.2395 285.745 85.9807 288.405 85.9807H290.685C291.445 85.9807 291.825 86.3513 291.825 87.0925V94.1341C291.825 94.8753 291.445 95.2459 290.685 95.2459H286.125C280.806 95.2459 277.006 94.1341 274.346 92.281C271.686 90.428 270.546 86.7219 270.546 81.5334V47.8082C270.546 47.4376 270.546 47.4376 270.166 47.4376H264.846C264.086 47.4376 263.706 47.067 263.706 46.3258V40.3961C263.706 39.6548 264.086 39.2842 264.846 39.2842H269.786C270.166 39.2842 270.166 39.2842 270.166 38.9136V26.313C270.166 25.5718 270.546 25.2012 271.306 25.2012H279.666C280.426 25.2012 280.806 25.5718 280.806 26.313V38.9136C280.806 39.2842 280.806 39.2842 281.186 39.2842H291.065C291.825 39.2842 292.205 39.6548 292.205 40.3961V46.3258C292.205 47.067 291.825 47.4376 291.065 47.4376Z" fill="black"></path><path d="M330.203 85.239C332.103 84.1271 333.243 82.2741 334.003 80.4211C334.383 79.6799 334.763 79.6799 335.523 79.6799L343.122 81.1623C343.882 81.5329 344.262 81.9035 343.882 82.6447C342.362 87.092 340.082 90.4275 336.282 92.6511C332.863 95.2453 328.303 96.3572 323.363 96.3572C317.663 96.3572 312.724 94.8747 309.304 91.9099C305.884 88.945 303.604 85.239 302.464 80.0505C302.084 77.8268 301.704 75.9738 301.704 73.3795C301.704 71.1559 301.704 68.191 301.704 64.1144C301.704 60.4083 301.704 57.4434 302.084 55.2198C302.844 50.0313 305.124 45.9546 308.544 42.9898C312.344 40.0249 316.903 38.1719 322.603 38.1719C328.683 38.1719 334.003 40.0249 337.802 43.3604C341.602 46.6958 343.882 51.1431 344.262 57.0728C344.642 59.6671 344.642 64.1144 344.642 70.7853C344.642 71.5265 344.262 71.8971 343.502 71.8971H312.724C312.344 71.8971 312.344 71.8971 312.344 72.2677C312.344 74.4914 312.344 75.9738 312.724 77.4562C313.104 80.0505 314.244 82.2741 316.144 84.1271C318.043 85.9802 320.703 86.7214 323.743 86.7214C326.403 86.7214 328.303 86.3508 330.203 85.239ZM316.144 50.0313C314.244 51.8843 313.104 53.7374 312.724 56.7022C312.344 58.5553 312.344 60.7789 312.344 63.0025C312.344 63.3731 312.344 63.3731 312.724 63.3731H333.243C333.623 63.3731 333.623 63.3731 333.623 63.0025C333.623 60.0377 333.243 57.814 333.243 56.7022C332.863 54.108 331.723 51.8843 329.823 50.0313C327.923 48.1783 325.643 47.437 322.603 47.437C320.323 47.437 318.043 48.5489 316.144 50.0313Z" fill="black"></path><path d="M591.874 85.239C593.774 84.1271 594.914 82.2741 595.673 80.4211C596.053 79.6799 596.433 79.6799 597.193 79.6799L604.793 81.1623C605.553 81.5329 605.933 81.9035 605.553 82.6447C604.033 87.092 601.753 90.4275 597.953 92.6511C594.534 95.2453 589.974 96.3572 585.034 96.3572C579.334 96.3572 574.395 94.8747 570.975 91.9099C567.555 88.945 565.275 85.239 564.135 80.0505C563.755 77.8268 563.375 75.9738 563.375 73.3795C563.375 71.1559 563.375 68.191 563.375 64.1144C563.375 60.4083 563.375 57.4434 563.755 55.2198C564.515 50.0313 566.795 45.9546 570.215 42.9898C574.015 40.0249 578.574 38.1719 584.274 38.1719C590.354 38.1719 595.673 40.0249 599.473 43.3604C603.273 46.6958 605.553 51.1431 605.933 57.0728C606.313 59.6671 606.313 64.1144 606.313 70.7853C606.313 71.5265 605.933 71.8971 605.173 71.8971H574.395C574.015 71.8971 574.015 71.8971 574.015 72.2677C574.015 74.4914 574.015 75.9738 574.395 77.4562C574.775 80.0505 575.914 82.2741 577.814 84.1271C579.714 85.9802 582.374 86.7214 585.414 86.7214C588.074 86.7214 589.974 86.3508 591.874 85.239ZM577.814 50.0313C575.914 51.8843 574.775 53.7374 574.395 56.7022C574.015 58.5553 574.015 60.7789 574.015 63.0025C574.015 63.3731 574.015 63.3731 574.395 63.3731H594.914C595.293 63.3731 595.294 63.3731 595.294 63.0025C595.294 60.0377 594.914 57.814 594.914 56.7022C594.534 54.108 593.394 51.8843 591.494 50.0313C589.594 48.1783 587.314 47.437 584.274 47.437C581.994 47.437 579.714 48.5489 577.814 50.0313Z" fill="black"></path><path d="M386.06 40.0259C386.44 40.3965 386.82 40.7671 386.44 41.5083L384.92 49.6617C384.92 50.4029 384.54 50.7735 383.4 50.4029C382.26 50.0323 381.121 50.0323 379.601 50.0323C378.461 50.0323 378.081 50.0323 377.321 50.0323C374.281 50.4029 372.001 51.5147 370.101 53.7383C368.201 55.962 367.061 58.9268 367.061 62.2623V93.7639C367.061 94.5051 366.681 94.8757 365.921 94.8757H357.562C356.802 94.8757 356.422 94.5051 356.422 93.7639V40.3965C356.422 39.6553 356.802 39.2847 357.562 39.2847H365.921C366.681 39.2847 367.061 39.6553 367.061 40.3965V47.438C367.061 47.8086 367.061 47.8086 367.061 47.8086H367.441C370.101 41.8789 374.281 38.9141 379.981 38.9141C382.64 38.9141 384.54 39.2847 386.06 40.0259Z" fill="black"></path><path d="M438.498 67.0797C438.498 71.8976 438.118 75.9743 437.358 79.6803C435.078 90.7986 428.998 95.9871 419.119 95.9871C413.799 95.9871 409.619 94.134 406.959 90.428C406.959 90.0573 406.959 90.0573 406.579 90.0573C406.579 90.0573 406.199 90.0573 406.199 90.428V114.888C406.199 115.629 405.819 116 405.059 116H396.7C395.94 116 395.56 115.629 395.56 114.888V40.396C395.56 39.6548 395.94 39.2842 396.7 39.2842H405.059C405.819 39.2842 406.199 39.6548 406.199 40.396V43.7315V44.1021H406.579C409.239 40.396 413.419 38.543 419.119 38.543C423.678 38.543 427.478 40.0254 430.518 42.6196C433.178 45.2139 435.458 49.2906 436.598 54.8497C438.118 58.1851 438.498 62.6324 438.498 67.0797ZM427.478 67.0797C427.478 61.8912 427.098 57.8145 425.958 54.8497C425.198 52.2554 424.058 50.4024 422.538 49.2906C421.018 48.1788 419.119 47.4375 416.459 47.4375C414.179 47.4375 412.279 48.1788 410.759 49.2906C409.239 50.4024 408.099 52.2554 407.339 54.8497C406.579 57.8145 405.819 61.8912 405.819 67.0797C405.819 72.6388 406.199 76.7155 407.339 79.6803C408.099 81.904 409.239 83.757 410.379 84.8688C411.899 85.9807 413.419 86.7219 415.699 86.7219C419.879 86.7219 423.298 84.4982 424.818 79.6803C427.098 76.7155 427.478 72.6388 427.478 67.0797Z" fill="black"></path><path d="M480.295 40.0259C480.675 40.3965 481.055 40.7671 480.675 41.5083L479.155 49.6617C479.155 50.4029 478.775 50.7735 477.635 50.4029C476.495 50.0323 475.355 50.0323 473.836 50.0323C472.696 50.0323 472.316 50.0323 471.556 50.0323C468.516 50.4029 466.236 51.5147 464.336 53.7383C462.436 55.962 461.296 58.9268 461.296 62.2623V93.7639C461.296 94.5051 460.916 94.8757 460.156 94.8757H452.177C451.417 94.8757 451.037 94.5051 451.037 93.7639V40.3965C451.037 39.6553 451.417 39.2847 452.177 39.2847H460.536C461.296 39.2847 461.676 39.6553 461.676 40.3965V47.438C461.676 47.8086 461.676 47.8086 461.676 47.8086H462.056C464.716 41.8789 468.896 38.9141 474.596 38.9141C476.875 38.9141 478.775 39.2847 480.295 40.0259Z" fill="black"></path><path d="M490.175 28.5367C488.655 27.0542 488.275 25.5718 488.275 23.3482C488.275 21.1245 489.035 19.6421 490.175 18.1597C491.695 17.0479 493.215 16.3066 495.494 16.3066C497.774 16.3066 499.294 17.0479 500.814 18.1597C502.334 19.6421 502.714 21.1245 502.714 23.3482C502.714 25.5718 501.954 27.0542 500.814 28.5367C499.294 30.0191 497.774 30.3897 495.874 30.3897C493.215 30.3897 491.695 30.0191 490.175 28.5367ZM489.795 94.1341V40.3961C489.795 39.6549 490.175 39.2843 490.935 39.2843H499.294C500.054 39.2843 500.434 39.6549 500.434 40.3961V94.1341C500.434 94.8753 500.054 95.2459 499.294 95.2459H490.935C490.175 95.2459 489.795 94.8753 489.795 94.1341Z" fill="black"></path><path d="M518.673 91.5398C514.874 88.9455 512.974 85.2394 512.974 80.7922V79.6803C512.974 78.9391 513.354 78.5685 514.114 78.5685H522.093C522.853 78.5685 523.233 78.9391 523.233 79.6803V80.4216C523.233 82.2746 524.373 84.1276 526.273 85.6101C528.173 87.0925 530.453 87.8337 533.493 87.8337C536.152 87.8337 538.812 87.0925 540.332 85.6101C542.232 84.1276 542.992 82.6452 542.992 80.4216C542.992 78.9391 542.612 77.4567 541.472 76.3449C540.332 75.2331 539.192 74.4918 537.672 73.7506C536.152 73.0094 533.873 72.2682 531.213 71.527C527.793 70.4152 524.753 69.3033 522.093 68.1915C519.813 67.0797 517.533 65.2267 516.013 63.003C514.114 60.7794 513.354 57.8145 513.354 54.4791C513.354 49.6612 515.254 45.5845 518.673 42.9903C522.093 40.0254 527.033 38.543 532.733 38.543C538.812 38.543 543.372 40.0254 547.172 42.9903C550.972 45.9551 552.492 49.6612 552.492 54.4791V54.8497C552.492 55.5909 552.112 55.9615 551.352 55.9615H543.372C542.612 55.9615 542.232 55.5909 542.232 54.8497V54.4791C542.232 52.2554 541.472 50.773 539.572 49.2906C537.672 47.8081 535.393 47.0669 532.353 47.0669C529.693 47.0669 527.413 47.8081 525.513 48.92C523.993 50.4024 522.853 51.8848 522.853 54.1085C522.853 55.5909 523.233 57.0733 524.373 57.8145C525.513 58.9264 526.653 59.6676 528.173 60.4088C529.693 61.15 531.973 61.8912 534.633 63.003C538.432 64.1149 541.472 65.5973 543.752 66.7091C546.032 67.8209 548.312 69.674 550.212 71.8976C552.112 74.1212 552.872 77.0861 552.872 80.4216C552.872 85.2395 550.972 89.3161 547.552 91.9104C543.752 94.8752 538.812 96.3577 532.733 96.3577C527.413 95.6164 522.473 94.5046 518.673 91.5398Z" fill="black"></path><path d="M682.825 89.6878C678.645 93.3939 672.945 95.2469 666.106 95.2469H642.547C641.787 95.2469 641.407 94.8763 641.407 94.1351V19.6431C641.407 18.9019 641.787 18.5312 642.547 18.5312H664.586C671.805 18.5312 677.505 20.3843 681.685 23.7197C685.865 27.0552 687.765 32.2437 687.765 38.9146C687.765 46.6974 684.345 52.2565 677.885 55.2213C677.505 55.5919 677.505 55.5919 677.885 55.5919C681.305 57.445 683.965 59.6686 685.865 63.0041C687.765 65.9689 688.525 69.675 688.525 74.1223C689.285 80.7932 687.005 85.9817 682.825 89.6878ZM652.806 27.7964V50.7741C652.806 51.1447 652.806 51.1447 653.186 51.1447H665.346C669.146 51.1447 672.185 50.0328 674.465 48.1798C676.745 45.9562 677.885 43.3619 677.885 39.6558C677.885 35.9498 676.745 32.6143 674.465 30.7613C672.185 28.5376 669.146 27.4258 665.346 27.4258H653.186C652.806 27.4258 652.806 27.7964 652.806 27.7964ZM675.225 82.2757C677.505 80.052 678.645 76.7165 678.645 72.6399C678.645 68.5632 677.505 65.5983 675.225 63.0041C672.945 60.7804 669.906 59.298 666.106 59.298H653.566C653.186 59.298 653.186 59.298 653.186 59.6686V84.8699C653.186 85.2405 653.186 85.2405 653.566 85.2405H666.486C669.906 85.9817 672.945 84.8699 675.225 82.2757Z" fill="black"></path><path d="M707.524 91.5393C703.724 88.5744 701.444 84.4978 700.684 79.3093C699.924 75.6032 699.924 71.5265 699.924 67.0792C699.924 62.6319 700.304 58.5553 700.684 54.8492C701.444 49.6607 703.724 45.9546 707.524 42.6192C711.323 39.6543 715.883 38.1719 721.963 38.1719C727.663 38.1719 732.602 39.6543 736.402 42.6192C740.202 45.584 742.482 49.6607 743.242 54.4786C744.002 57.4434 744.002 61.8907 744.002 66.7086C744.002 71.5265 743.622 75.9738 743.242 78.9387C742.482 84.1272 740.202 88.2038 736.402 91.1687C732.602 94.1335 728.043 95.616 721.963 95.616C716.263 95.9866 711.323 94.5042 707.524 91.5393ZM729.183 84.4978C731.082 82.6447 732.222 80.4211 732.602 77.8268C732.982 74.4914 732.982 71.1559 732.982 67.4498C732.982 63.7438 732.982 60.0377 732.602 57.0728C732.222 54.4786 731.082 52.2549 729.183 50.4019C727.283 48.5489 725.003 47.8077 721.963 47.8077C719.303 47.8077 717.023 48.5489 715.123 50.4019C713.223 52.2549 712.083 54.4786 711.703 57.0728C711.323 59.6671 711.323 63.0026 711.323 67.4498C711.323 71.8971 711.323 75.2326 711.703 77.8268C712.083 80.4211 713.223 83.0153 715.123 84.4978C717.023 86.3508 719.303 87.092 722.343 87.092C724.623 86.7214 726.903 85.9802 729.183 84.4978Z" fill="black"></path><path d="M780.48 47.4376H770.6C770.22 47.4376 770.22 47.4376 770.22 47.8082V77.8274C770.22 80.7922 770.98 83.0159 772.12 84.1277C773.26 85.2395 775.16 85.9807 777.82 85.9807H780.1C780.86 85.9807 781.24 86.3513 781.24 87.0925V94.1341C781.24 94.8753 780.86 95.2459 780.1 95.2459H775.54C770.22 95.2459 766.421 94.1341 763.761 92.281C761.101 90.428 759.961 86.7219 759.961 81.5334V47.8082C759.961 47.4376 759.961 47.4376 759.581 47.4376H754.261C753.501 47.4376 753.121 47.067 753.121 46.3258V40.3961C753.121 39.6548 753.501 39.2842 754.261 39.2842H759.581C759.961 39.2842 759.961 39.2842 759.961 38.9136V26.313C759.961 25.5718 760.341 25.2012 761.101 25.2012H769.46C770.22 25.2012 770.6 25.5718 770.6 26.313V38.9136C770.6 39.2842 770.6 39.2842 770.98 39.2842H780.86C781.62 39.2842 782 39.6548 782 40.3961V46.3258C781.62 47.067 781.24 47.4376 780.48 47.4376Z" fill="black"></path></g><defs><clipPath id="clip0"><rect width="782" height="116" fill="white"></rect></clipPath></defs></svg> 