<?xml version="1.0" encoding="UTF-8"?> <svg xmlns="http://www.w3.org/2000/svg" width="622" height="250" viewBox="0 0 622 250" fill="none"><g clip-path="url(#clip0)"><g clip-path="url(#clip1)"><path d="M431.944 234.18H345.493V249.815H431.944V234.18Z" fill="black"></path><path d="M431.944 201.053H345.493V217.118H431.944V201.053Z" fill="black"></path><path d="M465.716 201.053L471.532 217.118H496.061L501.777 201.053H465.716Z" fill="black"></path><path d="M431.944 167.926H379.328V183.991H431.944V167.926Z" fill="black"></path><path d="M622 234.18H534.927V249.84H622V234.18Z" fill="black"></path><path d="M506.131 51.4869H621.067V35.4219H511.803L506.131 51.4869Z" fill="black"></path><path d="M483.38 249.815L484.425 249.84L489.997 234.18H477.714L483.38 249.815Z" fill="black"></path><path d="M379.328 117.739H431.944V107.845L435.527 117.739H531.413L534.927 107.869V117.739H587.233V101.674H488.411L483.803 114.719L479.138 101.674H379.328V117.739Z" fill="black"></path><path d="M525.349 134.801H441.709L447.531 150.866H519.633L525.349 134.801Z" fill="black"></path><path d="M122.213 201.053H0.932922V217.118H122.213V201.053Z" fill="black"></path><path d="M344.56 51.4869H461.195L455.454 35.4219H344.56V51.4869Z" fill="black"></path><path d="M87.4462 134.801H34.767V150.866H87.4462V134.801Z" fill="black"></path><path d="M431.944 134.801H379.328V150.866H431.944V134.801Z" fill="black"></path><path d="M122.213 234.18H0.932922V249.815H122.213V234.18Z" fill="black"></path><path d="M621.067 18.362V0.771484H524.043L517.83 18.362H621.067Z" fill="black"></path><path d="M494.432 84.6138H587.233V68.5488H500.104L494.432 84.6138Z" fill="black"></path><path d="M87.4462 167.926H34.767V183.991H87.4462V167.926Z" fill="black"></path><path d="M613.305 201.053H534.927V217.118H622V201.053H613.305Z" fill="black"></path><path d="M449.353 18.3615L443.065 0.771001L344.56 0.746094V18.3615H449.353Z" fill="black"></path><path d="M121.28 0.123047H0V18.3612H121.28V0.123047Z" fill="black"></path><path d="M87.4462 101.674H34.767V117.739H87.4462V101.674Z" fill="black"></path><path d="M379.328 68.5488V84.6138H473.043L467.296 68.5488H379.328Z" fill="black"></path><path d="M587.233 134.801H534.927V150.866H587.233V134.801Z" fill="black"></path><path d="M587.233 167.926H534.927V183.991H587.233V167.926Z" fill="black"></path><path d="M121.28 35.4219H0V51.4869H121.28V35.4219Z" fill="black"></path><path d="M87.4462 68.5488H34.767V84.6138H87.4462V68.5488Z" fill="black"></path><path d="M453.713 167.926L459.534 183.991H507.847L513.563 167.926H453.713Z" fill="black"></path><path d="M331.804 183.993L331.841 183.563C331.841 177.461 329.92 170.786 328.999 167.928H276.146V183.993H331.804Z" fill="black"></path><path d="M172.84 150.866H321.579L321.362 150.374C318.656 144.116 311.678 137.646 308.363 134.801H172.84V150.866Z" fill="black"></path><path d="M330.15 201.053H138.073V217.118H323.868L324.241 216.688C327.388 213.587 329.459 204.515 330.15 201.053Z" fill="black"></path><path d="M225.146 167.928H172.84V183.993H225.146V167.928Z" fill="black"></path><path d="M138.073 249.815L269.385 249.877C288.722 249.877 304.09 238.221 308.836 234.18H138.073V249.815Z" fill="black"></path><path d="M225.146 68.5488H172.84V84.6138H225.146V68.5488Z" fill="black"></path><path d="M138.073 51.4888H330.467L330.411 50.8724C330.411 50.8724 328.62 40.4239 325.448 35.4238H138.073V51.4888Z" fill="black"></path><path d="M306.559 117.741V117.249C306.559 117.249 316.461 109.54 320.64 101.676H172.84V117.741H306.559V117.741Z" fill="black"></path><path d="M276.146 84.6138H328.265L328.514 84.0596C328.514 84.0596 331.431 76.1517 331.804 68.5488H276.146V84.6138Z" fill="black"></path><path d="M310.907 18.3613L310.372 17.7449C310.372 17.7449 292.771 0.683594 269.385 0.683594L138.073 0.745861V18.3613H310.907Z" fill="black"></path></g></g><defs><clipPath id="clip0"><rect y="0.123047" width="622" height="249.754" fill="white"></rect></clipPath><clipPath id="clip1"><rect y="0.123047" width="622" height="249.754" fill="white"></rect></clipPath></defs></svg> 