<?xml version="1.0" encoding="UTF-8"?> <svg xmlns="http://www.w3.org/2000/svg" width="782" height="91" viewBox="0 0 782 91" fill="none"><path d="M654.346 12.6953C631.785 12.6953 623.291 31.0755 623.291 45.2965C623.291 60.0189 632.017 77.9013 653.593 77.9013C672.692 77.9013 684.724 62.8452 684.724 43.8013C684.722 24.7537 673.068 12.6953 654.346 12.6953ZM656.547 73.453C642.836 73.453 634.618 59.8654 634.618 42.7342C634.618 22.2289 643.975 16.9634 652.19 16.9634C663.911 16.9634 673.12 28.4062 673.12 46.8542C673.12 70.6516 661.547 73.453 656.547 73.453Z" fill="black"></path><path d="M419.322 78.0539C424.343 78.0539 429.619 77.3045 434.274 74.6387C440.974 70.7222 442.881 64.9749 442.736 60.1448C442.504 52.226 438.171 46.65 426.581 38.9061L423.883 37.1592C415.867 31.908 413.602 28.9907 413.492 25.1544C413.344 20.1601 417.498 16.579 424.502 16.579C430.654 16.579 433.469 19.0752 434.937 20.6615C436.986 22.8241 437.54 25.406 437.563 26.1518C437.594 27.1546 437.892 27.656 438.555 27.656C439.309 27.656 439.574 26.9922 439.519 25.1544C439.327 18.6613 439.633 16.2453 439.603 15.1551C439.581 14.5788 439.102 14.3254 438.247 14.1577C435.77 13.5795 431.772 12.748 425.613 12.748C412.461 12.748 403.951 19.3232 404.22 28.4893C404.42 35.2358 408.19 41.0669 418.816 48.2309L423.26 51.2321C431.273 56.5565 432.81 60.4784 432.929 64.5592C433.06 68.9753 429.049 74.0517 420.53 74.0517C414.664 74.0517 409.013 71.8035 406.75 65.6387C406.228 64.2237 405.803 62.4787 405.764 61.3902C405.747 60.7247 405.633 59.9753 404.779 59.9753C404.022 59.9753 403.767 60.8924 403.708 62.1396C403.654 63.4743 403.422 68.4757 403.56 73.0543C403.611 74.8796 403.908 75.3061 405.44 75.8842C409.559 77.4687 413.834 78.0539 419.322 78.0539Z" fill="black"></path><path d="M625.655 74.663C624.673 74.663 623.48 74.5863 622.352 74.3312C620.766 73.9261 619.263 72.1115 618.574 64.7262C617.424 52.2538 615.254 18.7605 614.825 14.2355C614.677 12.7259 613.169 12.4012 612.241 13.0917C611.545 13.602 610.592 15.0616 609.631 16.3891C595.006 36.5019 586.946 47.372 572.079 67.6436C569.487 71.1801 567.383 75.0413 562.435 74.8022C560.324 74.697 559.512 72.6628 559.27 70.37C558.865 66.837 558.865 60.3582 558.865 52.8088V19.9935C558.865 19.0942 559.111 18.5981 559.51 18.4304C560.246 18.1824 561.464 18.1092 562.69 18.1092C564.556 18.1092 569.321 18.3537 572.244 21.048C576.798 25.159 576.75 30.7315 576.75 33.4347C576.75 41.812 570.159 47.1507 565.605 47.1507C563.891 47.1507 562.437 47.3952 562.437 48.0536C562.437 48.621 563.01 48.712 563.415 48.7923C563.826 48.8654 567.291 48.9975 567.7 48.9975C579.251 48.9975 587.514 41.9976 587.715 29.1452C587.774 24.8004 585.414 21.1265 583.644 19.3814C581.316 17.0975 576.108 14.5781 565.934 14.5781C562.193 14.5781 557.483 14.8314 554.144 14.8314C552.161 14.8314 540.868 14.3443 540.35 14.3443C537.588 14.3443 534.831 14.5923 533.221 14.5923C531.691 14.5923 528.19 14.3443 524.412 14.3443C523.317 14.3443 522.516 14.43 522.516 15.0902C522.516 15.5755 522.806 15.8199 523.683 15.8199C524.699 15.8199 526.449 15.8199 527.54 16.3071C529.285 17.135 529.941 18.682 530.014 23.687L530.224 55.5691C528.988 54.2559 492.984 14.0463 491.92 13.2291C490.549 12.1907 489.139 13.1524 489.139 14.4496L487.791 55.6887C475.023 39.6941 454.788 14.2176 454.241 13.4147C453.408 12.1907 451.373 12.5654 451.235 14.3229C451.058 16.6621 447.566 67.5686 447.566 67.5686C447.438 71.6244 446.895 74.3883 443.284 74.8665C442.656 74.9575 441.533 75.0306 440.786 75.0306C440.126 75.0306 439.857 75.1983 440.04 75.6783C440.285 76.3332 440.837 76.4973 441.917 76.4973C446.205 76.4973 450.646 76.2493 451.557 76.2493C454.117 76.2493 457.753 76.4973 460.393 76.4973C461.295 76.4973 461.734 76.3332 461.491 75.6783C461.311 75.1966 461.005 75.0306 460.012 75.0306H458.776C456.219 75.0306 455.085 73.9779 454.537 72.5183C454.167 71.5458 453.852 69.5974 453.921 67.5704L454.034 55.9795C454.009 55.4817 454.117 55.3247 454.535 55.3247H472.068C472.475 55.3247 472.786 55.4817 473.101 55.8992L486.112 72.0098C486.454 72.4344 486.616 73.191 485.974 73.8298C485.85 73.9475 485.427 74.2348 485.118 74.3347C484.099 74.6666 482.519 74.5792 481.569 74.5792C480.836 74.5792 480.811 75.0502 480.811 75.5409C480.811 76.2832 481.482 76.4402 482.429 76.4402C486.22 76.4402 489.643 76.3564 490.289 76.3564L498.106 76.3421C500.604 76.3903 502.989 76.4955 504.447 76.4991C507.656 76.4991 508.174 76.3349 507.941 75.6801C507.727 75.1091 507.973 74.8236 507.309 74.8236C506.32 74.8236 506.221 74.8754 504.891 74.6256C503.005 74.2241 500.765 71.8867 494.898 64.5817L493.668 63.0382L493.185 33.2848C494.502 34.8461 527.029 70.5413 531.618 75.4517C532.416 76.3581 533.29 77.261 534.087 77.261C534.75 77.261 535.037 76.5223 535.037 74.713L535.838 23.0339C535.911 18.45 536.447 16.5801 538.527 16.0751C539.308 15.886 541.438 15.8449 543.019 16.1839C545.698 16.7531 546.358 18.0682 546.521 20.8571C546.683 23.4871 546.683 25.78 546.683 38.2488L546.687 52.6892C546.687 60.2315 546.687 66.7157 546.273 70.163C545.951 72.5361 545.544 74.349 543.916 74.672C543.187 74.8361 542.206 75.0074 540.987 75.0074C540.015 75.0074 539.688 75.2483 539.688 75.6587C539.688 76.2297 540.261 76.4741 541.312 76.4741C544.567 76.4741 552.035 76.1048 552.418 76.1262C559.875 76.5241 566.419 76.4117 570.023 76.2903C572.999 76.1851 577.397 76.6811 578.503 76.6811C579.405 76.6811 580.148 76.5455 580.159 75.8514C580.159 75.4642 579.917 75.193 579.151 75.193H577.928C575.409 75.193 575.709 74.0599 576.594 72.7645L588.167 55.9224C588.485 55.4281 588.703 55.2604 589.11 55.2604L605.464 55.1837C605.869 55.1837 606.059 55.3478 606.091 55.7582L606.744 72.8912C606.83 73.8779 606.025 74.6238 605.399 74.7808C604.555 74.8682 604.014 74.945 604.037 75.6694C604.065 76.3635 604.755 76.4706 606.248 76.4331C609.199 76.3671 611.469 76.2939 614.804 76.3421C617.759 76.3831 620.786 76.6276 622.375 76.6276C625.381 76.6276 626.431 76.219 626.649 75.5641C626.826 74.9824 626.304 74.663 625.655 74.663ZM468.777 51.2618H454.668C454.333 51.2618 454.16 51.028 454.121 50.6979L454.712 34.2323C454.726 33.9397 454.687 33.5418 454.936 33.5114C455.186 33.4811 455.23 33.7469 455.48 34.0485C456.111 34.8532 469.005 50.7782 469.005 50.7782C469.181 51.028 469.188 51.2618 468.777 51.2618ZM605.243 51.2261L591.988 51.1529C591.843 51.1529 591.546 50.9745 591.822 50.5784C593.09 48.7245 600.969 37.2835 604.362 32.3837C604.587 32.059 604.898 32.1678 604.909 32.489C605.013 34.9407 605.818 50.7283 605.818 50.7283C605.816 50.9709 605.654 51.2261 605.243 51.2261Z" fill="black"></path><path d="M750.44 12.6953C727.886 12.6953 719.389 31.0755 719.389 45.2965C719.389 52.1893 721.303 59.7655 725.54 65.8857C725.192 67.3256 724.39 69.0368 723.582 69.9147C721.551 72.1344 716.443 72.2075 712.133 72.2075C705.785 72.2075 705.35 71.633 703.975 70.4089C702.264 68.9387 702.264 63.2753 702.264 52.7674V38.3341C702.264 25.8653 702.264 23.5671 702.427 20.9388C702.593 18.0714 703.239 16.6743 705.433 16.2604C706.411 16.1016 707.717 16.0159 708.612 16.0159C709.584 16.0159 710.077 15.8625 710.077 15.279C710.077 14.7062 709.504 14.5439 708.363 14.5439C705.194 14.5439 697.44 14.7883 695.488 14.7883C693.291 14.7883 687.965 14.5439 684.144 14.5439C682.921 14.5439 682.357 14.7062 682.357 15.279C682.357 15.8625 682.84 16.0159 683.732 16.0159C684.793 16.0159 685.77 16.1016 686.421 16.2604C689.107 16.8331 689.759 18.1535 689.922 20.9388C690.085 23.5671 690.085 25.8653 690.085 38.3341V52.7674C690.085 60.3258 690.085 66.7975 689.678 70.2519C689.352 72.6215 688.949 74.4308 687.321 74.7609C686.585 74.925 685.611 75.0821 684.388 75.0821C683.417 75.0821 683.089 75.3372 683.089 75.744C683.089 76.3115 683.663 76.563 684.721 76.563C687.969 76.563 693.294 76.3115 695.166 76.3115C701.757 76.3115 709.193 76.8057 720.896 76.8057C725.13 76.8057 725.544 76.4007 726.027 74.5896C726.434 73.0872 726.811 70.0842 727.035 67.8538C731.925 73.7777 739.323 77.9013 749.697 77.9013C768.796 77.9013 780.822 62.8452 780.822 43.8013C780.818 24.7537 769.166 12.6953 750.44 12.6953ZM752.652 73.453C738.93 73.453 730.721 59.8654 730.721 42.7342C730.721 22.2289 740.075 16.9634 748.293 16.9634C760.007 16.9634 769.223 28.4062 769.223 46.8542C769.221 70.6516 757.648 73.453 752.652 73.453Z" fill="black"></path><path d="M261.168 75.7758C260.181 75.7758 258.994 75.7027 257.856 75.444C256.28 75.0425 254.771 73.2243 254.084 65.8354C252.934 53.3666 250.769 19.8715 250.332 15.3465C250.19 13.8334 248.678 13.5194 247.747 14.1992C247.059 14.7131 246.102 16.1726 245.139 17.5002C233.878 33.0005 226.492 43.0212 216.906 56.0717C215.444 50.1121 210.832 45.1927 201.28 38.8084L198.578 37.0616C190.566 31.8139 188.304 28.8966 188.189 25.0656C188.037 20.0678 192.193 16.4813 199.198 16.4813C205.346 16.4813 208.166 18.9829 209.633 20.5638C211.683 22.7318 212.232 25.3137 212.256 26.0631C212.288 27.0623 212.585 27.5637 213.247 27.5637C214.003 27.5637 214.27 26.8946 214.213 25.0656C214.02 18.5618 214.326 16.1476 214.296 15.0681C214.279 14.4847 213.801 14.2366 212.939 14.0689C210.464 13.4854 206.464 12.6504 200.312 12.6504C187.156 12.6504 178.646 19.2345 178.917 28.3916C179.119 35.1381 182.887 40.9692 193.51 48.1422L197.954 51.1363C205.968 56.4678 207.504 60.379 207.628 64.4633C207.759 68.8795 203.746 73.963 195.226 73.963C189.357 73.963 183.708 71.7076 181.442 65.5464C180.925 64.1314 180.497 62.3792 180.465 61.2943C180.444 60.6324 180.327 59.883 179.476 59.883C178.719 59.883 178.549 60.8037 178.402 62.0438C178.31 62.8449 178.022 64.7898 177.924 65.3376C177.346 68.7278 176.362 70.4675 174.23 71.4649C172.093 72.4659 168.639 72.4659 166.508 72.4659C158.125 72.4659 152.044 71.2187 151.881 65.5071C151.798 63.0983 151.881 55.4811 151.881 52.6583V46.1152C151.881 45.6138 151.964 45.2891 152.371 45.2891C154.341 45.2891 166.04 45.3694 167.597 45.5335C170.639 45.8672 171.789 47.1091 172.201 48.7649C172.445 49.8426 172.445 50.9221 172.528 51.7483C172.528 52.1622 172.695 52.4977 173.271 52.4977C174.004 52.4977 174.004 51.5806 174.004 50.9221C174.004 50.344 174.17 47.0288 174.336 45.3693C174.582 41.1441 174.996 39.8201 174.996 39.3223C174.996 38.8227 174.747 38.6585 174.418 38.6585C174.004 38.6585 173.68 39.0689 173.107 39.7345C172.369 40.566 171.129 40.8104 169.163 40.9764C167.268 41.1441 154.261 41.1441 152.455 41.1441C151.964 41.1441 151.881 40.8086 151.881 40.2305V19.2702C151.881 18.6885 152.044 18.4405 152.455 18.4405C154.096 18.4405 166.286 18.6064 167.681 18.7742C171.789 19.2702 172.611 20.2658 173.188 21.7557C173.595 22.7496 173.678 24.1592 173.678 24.7409C173.678 25.485 173.845 25.8954 174.416 25.8954C174.995 25.8954 175.157 25.4047 175.24 24.9836C175.401 23.9897 175.568 20.3444 175.647 19.5146C175.895 15.7034 176.304 14.7113 176.304 14.1314C176.304 13.7174 176.228 13.382 175.814 13.382C175.401 13.382 174.911 13.6353 174.497 13.7174C173.843 13.8851 172.526 14.0511 170.968 14.2081C169.404 14.2991 149.495 14.2991 146.866 14.2991C145.716 14.2991 143.83 14.2081 141.689 14.1314C140.001 14.1314 138.088 14.0778 136.229 14.06C136.151 13.6407 135.985 13.4587 135.638 13.4587C135.001 13.4587 133.037 14.2759 127.82 14.2759H100.172C97.481 14.2759 94.3919 14.1135 92.0335 13.8655C89.9989 13.7067 89.2187 13.1875 88.5588 13.1875C88.1094 13.1875 87.8334 13.3552 87.6052 14.2545H86.8002C85.7139 14.2545 84.6275 14.292 83.6049 14.3401C81.8339 14.4044 80.3407 14.4847 79.3871 14.4989C77.7346 14.4704 74.4615 14.2545 70.9355 14.2545C69.8456 14.2545 69.053 14.3366 69.053 14.9914C69.053 15.4767 69.3432 15.7265 70.2083 15.7265C71.2239 15.7265 72.9648 15.7265 74.0493 16.2172C75.6027 16.9542 76.2909 18.2621 76.4643 22.1287L76.7226 55.4739C75.4948 54.1607 39.6555 13.9458 38.601 13.1322C37.2334 12.0901 35.8268 13.0519 35.8268 14.3526L35.128 35.9303L34.1337 64.4347C34.0558 71.5542 32.667 72.9584 30.7828 74.1022C29.9247 74.6321 28.3978 74.8801 27.3487 74.9283C27.0285 74.9426 23.6616 75.0924 22.2215 74.7499C20.0453 74.2199 18.7432 72.7354 18.4937 70.5228C18.1646 66.9863 18.1646 60.5075 18.1646 52.5298V38.0804C18.1646 25.5974 18.1646 23.2992 18.3345 20.6655C18.4937 17.7946 19.1483 16.3939 21.3422 15.9871C22.3082 15.8193 22.9522 15.7337 23.7625 15.7337C24.5798 15.7337 25.0558 15.5802 25.0558 14.9111C25.0558 14.4276 24.4135 14.2581 23.3591 14.2581C20.2788 14.2581 15.4913 14.5025 13.4744 14.5025C11.1213 14.5025 6.01884 14.2581 2.93507 14.2581C1.64177 14.2598 0.985382 14.4294 0.985382 14.9129C0.985382 15.582 1.47546 15.7355 2.29284 15.7355C3.25177 15.7355 4.31507 15.8211 5.21207 16.0656C6.98661 16.476 7.80754 17.8731 7.95969 20.6673C8.126 23.301 8.126 25.5992 8.126 38.0822V52.5316C8.126 60.5093 8.126 66.9881 7.72615 70.4372C7.47846 72.821 6.98838 74.211 5.36423 74.5536C4.64415 74.7106 3.664 74.8748 2.45207 74.8748C1.47546 74.8748 1.15169 75.1228 1.15169 75.5367C1.15169 76.1113 1.71961 76.3593 2.77407 76.3593C6.02061 76.3593 11.1231 76.1113 12.9949 76.1113C15.1711 76.1113 27.3805 76.3486 27.7662 76.3486C31.9664 76.3486 36.2178 76.2201 36.9415 76.2201C38.4772 76.2201 41.706 76.4682 46.9553 76.4682C48.0841 76.4682 48.813 76.3004 48.813 75.6456C48.813 75.1585 48.3282 74.9979 47.4365 74.9979C46.1485 74.9979 44.6128 74.9105 43.2399 74.4233C41.6264 73.8488 40.5719 71.7219 40.4162 65.3412L40.1155 49.2235L39.8572 33.1878C41.1646 34.7455 73.5415 70.4425 78.1062 75.3565C78.9059 76.2558 79.771 77.1587 80.5654 77.1587C81.2165 77.1587 81.5102 76.4236 81.5102 74.6178L82.3081 22.937C82.3169 22.2928 82.3364 21.7004 82.3682 21.158C82.6159 18.0426 83.3077 16.8899 84.7266 16.2208C85.4874 15.8782 86.556 15.7836 87.4795 15.7462C87.4265 18.1175 87.4795 22.9102 87.4795 23.9397C87.4795 24.8515 87.6459 25.253 88.2155 25.253C88.6968 25.253 88.9445 24.9229 89.109 24.2681C89.27 23.6043 89.6769 22.614 90.4908 21.3775C91.7062 19.5664 93.6719 19.1506 98.3957 18.9794L106.543 18.6493V52.4816C106.543 60.0757 106.543 66.592 106.14 70.0571C105.894 72.4535 104.928 74.2627 103.3 74.6053C102.562 74.7624 99.9473 74.9301 98.7283 74.9301C97.7517 74.9301 97.4279 75.1745 97.4279 75.5921C97.4279 76.1666 97.9976 76.4182 99.0609 76.4182C102.306 76.4182 109.556 76.1666 111.421 76.1666C113.705 76.1666 118.841 76.4182 124.209 76.4182C125.108 76.4182 125.767 76.1666 125.767 75.5921C125.767 75.1745 125.346 74.9301 124.458 74.9301C123.239 74.9301 121.44 74.7624 120.302 74.6053C117.87 74.2645 117.376 72.4552 117.13 70.1446C116.718 66.5938 116.718 60.0757 116.718 52.4834V18.6493L124.731 18.9026C131.981 19.0704 134.453 21.3775 134.614 23.5222L134.691 24.4304C134.783 25.6723 134.943 26.0791 135.594 26.0791C136.084 26.0791 136.241 25.5867 136.324 24.7605C136.324 22.7657 136.301 17.6839 136.301 15.5981C136.919 15.6373 137.487 15.7016 137.837 15.7908C140.546 16.3743 141.208 17.6964 141.374 20.5103C141.533 23.1654 141.533 25.4867 141.533 38.0786V52.6583C141.533 60.2862 141.533 66.8311 141.126 70.3141C140.797 72.7122 140.388 74.5411 138.741 74.8658C138.003 75.0336 137.016 75.2013 135.783 75.2013C134.798 75.2013 134.467 75.4457 134.467 75.8633C134.467 76.4378 135.044 76.6894 136.114 76.6894C137.756 76.6894 139.891 76.6056 141.781 76.5253C143.753 76.5253 145.558 76.4378 146.462 76.4378C148.93 76.4378 151.476 76.5253 155.008 76.6894C158.539 76.7768 167.826 76.941 173.986 76.941C177.109 76.941 177.847 76.941 178.42 74.7873C178.439 74.7106 178.462 74.6125 178.48 74.5197C178.715 75.1406 179.191 75.4368 180.139 75.799C184.26 77.3782 188.536 77.967 194.024 77.967C195.836 77.967 197.683 77.8617 199.521 77.6083C201.952 77.6333 204.01 77.6083 205.531 77.5566C208.507 77.4549 212.9 77.5566 214.01 77.5566C214.907 77.5566 215.65 77.6619 215.66 76.9642C215.664 76.577 215.427 76.3094 214.654 76.3094H213.433C210.912 76.3094 211.214 75.1727 212.094 73.8809L223.666 57.0316C223.986 56.5481 224.204 56.3804 224.611 56.3804L240.971 56.2965C241.374 56.2965 241.562 56.4642 241.599 56.8746L242.247 74.0076C242.335 74.9943 241.526 75.733 240.909 75.8936C240.065 75.9775 239.513 76.0542 239.541 76.7822C239.571 77.4727 240.267 77.5762 241.755 77.5459C244.704 77.4799 246.974 77.4031 250.307 77.4549C253.26 77.4959 256.292 77.7439 257.881 77.7439C260.891 77.7439 261.936 77.3353 262.15 76.6769C262.333 76.097 261.82 75.7758 261.168 75.7758ZM240.75 52.3317L227.493 52.2657C227.357 52.2657 227.054 52.0909 227.327 51.6947C228.599 49.8301 236.47 38.4016 239.874 33.4965C240.097 33.17 240.405 33.2753 240.421 33.6018C240.522 36.0534 241.323 51.8411 241.323 51.8411C241.323 52.0837 241.158 52.3317 240.75 52.3317Z" fill="black"></path><path d="M367.977 26.0242L367.949 26.001C367.416 25.6799 366.609 25.4961 366.068 25.737C362.606 25.4051 359.304 25.4425 355.805 25.4782H355.702L355.562 25.4818C353.811 25.505 351.999 25.5228 350.189 25.4961C335.529 25.1892 335.529 25.1892 335.529 25.1892C332.095 25.0982 328.327 25.1267 324.634 25.2659C321.897 25.2891 319.244 25.3605 316.537 25.4425C313.718 25.5157 306.99 25.5389 302.968 25.5478C300.829 25.5567 299.704 25.5567 299.563 25.5657C299.085 25.5978 298.513 26.2615 298.499 26.8022C298.489 27.1002 298.667 27.4428 299.179 27.4945C299.559 27.5391 301.988 27.548 306.402 27.5338L310.914 27.5106C312.117 27.5016 312.676 27.5284 312.938 27.4963H312.965C316.28 27.1626 319.613 27.1805 322.835 27.2037H323.085C325.17 27.2126 327.329 27.2269 329.498 27.1412C329.947 27.2447 330.423 27.1501 330.88 27.0538L330.951 27.0413C331.152 27.0003 331.365 26.9592 331.572 26.9449C332.065 27.0805 332.631 27.0752 333.228 27.0627C333.799 27.052 334.386 27.0395 334.919 27.1715L334.924 27.1858L335.016 27.1805V27.1662C335.485 27.0038 335.915 27.0895 336.364 27.1805C336.379 27.1858 336.448 27.1947 336.448 27.1947C336.662 27.2393 336.863 27.275 337.061 27.2804C341.253 27.168 345.888 27.3179 351.666 27.7675C351.661 27.7675 354.403 28.0601 354.403 28.0601V28.0583V28.0619H354.437C356.868 27.8228 359.38 28.0084 361.809 28.1832C361.818 28.1886 361.87 28.1886 361.87 28.1886C363.697 28.3278 365.422 28.4545 367.138 28.4134L367.142 28.4366L367.248 28.4009L367.245 28.3777L368.154 27.6462L368.157 27.6497L368.198 27.6069L368.193 27.5962C368.494 27.1091 368.396 26.4239 367.977 26.0242Z" fill="black"></path><path d="M343.721 57.4386L343.795 57.394V57.212L343.73 51.454V51.4362L343.724 51.4219C343.624 50.5547 343.608 49.5965 343.581 48.5813C343.558 47.4429 343.533 46.2634 343.381 45.2196C343.353 43.7297 343.061 42.1274 342.776 40.5768L342.585 39.5294L342.566 39.4295L342.497 39.3581C342.268 39.1226 342.189 38.8336 342.102 38.4999C342.028 38.2162 341.95 37.9271 341.771 37.6506C341.391 36.9422 340.784 36.2641 340.25 35.6593L340.22 35.6271C340.089 35.4451 339.931 35.347 339.795 35.2614C339.712 35.2078 339.639 35.1561 339.556 35.0847L339.432 34.9812L339.36 34.9991L339.262 34.9223C338.778 34.5334 338.327 34.3799 337.805 34.2104L337.796 34.205C337.644 33.9891 337.355 33.9552 337.162 33.9517V33.8071L336.888 33.7697L335.623 33.577L335.436 33.5484L335.317 33.7019C335.271 33.7608 335.262 33.7786 334.997 33.6751C334.871 33.6341 334.738 33.5841 334.592 33.5698L334.443 33.5556L334.369 33.6287C334.332 33.6002 334.28 33.5698 334.225 33.5377L333.695 33.3789L333.657 33.6287C333.417 33.6234 333.217 33.668 333.051 33.759H332.21L331.435 33.7679L331.522 34.0712L331.508 34.0855C331.165 33.9891 330.908 34.2015 330.761 34.3246C330.733 34.3478 330.706 34.3692 330.689 34.3835C330.414 34.4263 330.257 34.5459 330.147 34.6315C330.064 34.6939 330.036 34.7171 329.963 34.7225L329.831 34.7314L329.744 34.8403C329.629 34.9759 329.264 35.1436 329.063 35.2346L328.638 35.4237L328.73 35.5183C328.661 35.5468 328.594 35.5915 328.53 35.6486H328.116V35.9787C328.097 35.9751 328.083 35.9751 328.07 35.9697L327.837 35.8698C327.817 35.8662 327.67 36.0732 327.67 36.0732C327.417 36.4247 327.088 36.778 326.745 37.1438C326.342 37.581 325.921 38.0288 325.602 38.5177L325.501 38.6569L325.565 38.8068C325.487 38.8514 325.296 38.9781 325.259 39.2136C325.101 39.3867 325.066 39.6169 325.038 39.7703C325.032 39.8149 325.024 39.8827 325.009 39.9148C324.838 40.1165 324.804 40.3252 324.776 40.4823C324.751 40.6036 324.742 40.6714 324.693 40.7356L324.488 40.9944L324.58 41.0675C324.519 41.2245 324.519 41.3833 324.519 41.4815C324.519 41.5261 324.516 41.576 324.511 41.6171L324.376 41.6974L324.411 41.9008C324.465 42.3076 324.415 42.6859 324.36 43.0784C324.311 43.4638 324.259 43.8528 324.302 44.29C324.144 44.5291 324.181 44.8092 324.21 44.9912C324.219 45.0483 324.233 45.1357 324.227 45.1714L324.022 45.3356L324.167 45.58C324.279 45.7656 324.19 46.0636 324.111 46.3473C324.028 46.6185 323.936 46.9486 324.031 47.2412C324.008 47.2609 323.982 47.2858 323.962 47.318C323.925 47.3626 323.893 47.4536 323.902 47.5535C323.902 47.7801 323.879 47.8479 323.87 47.864L323.721 48.178L323.7 48.2993L323.971 48.4903C323.939 48.6758 323.962 48.8489 323.985 49.0024C324.02 49.2076 324.022 49.2986 323.962 49.3824L323.792 49.6929L323.962 49.8945C323.962 49.9159 323.962 49.932 323.962 49.9498C323.953 50.089 323.939 50.3442 324.114 50.5279C324.12 50.5636 324.125 50.594 324.134 50.6261L323.826 50.7099L324.022 51.1453C324.022 51.1739 324.013 51.2149 324.005 51.2506C323.969 51.3755 323.916 51.6342 324.043 51.8573C323.946 52.1088 324.006 52.3515 324.049 52.5192C324.058 52.5638 324.075 52.6334 324.081 52.6727C323.787 52.9867 323.93 53.3971 324.013 53.6166C323.875 53.8254 323.905 54.0734 323.936 54.2268L323.541 54.366L323.944 54.78C323.927 54.8674 323.927 54.978 323.989 55.0976C324.035 55.1672 324.095 55.2118 324.158 55.2367L324.036 55.2814C324.042 55.2956 324.045 55.3099 324.051 55.3224L324.19 55.6917L324.187 55.7328C324.155 55.9487 324.203 56.161 324.307 56.3287C324.272 56.3734 324.25 56.4376 324.242 56.5107L324.086 56.6678L324.242 56.8908C324.36 57.0621 324.316 57.2923 324.227 57.6474C324.15 57.9543 324.049 58.3575 324.233 58.6965L324.008 58.9124L324.286 59.1248C324.282 59.139 324.272 59.1533 324.268 59.1658C324.196 59.2943 324.066 59.5494 324.227 59.8135L324.215 59.7814C324.272 59.9134 324.247 60.1258 324.219 60.3452C324.181 60.67 324.132 61.0625 324.307 61.4533L324.25 61.8441L324.265 61.7923C324.22 61.9458 324.25 62.0742 324.302 62.1652L324.178 62.2241L324.265 62.4989C324.353 62.7808 324.357 63.1234 324.357 63.4928C324.362 64.1904 324.362 64.9737 324.983 65.5768L325.119 65.7017L325.294 65.6464C325.763 65.5144 325.779 65.0433 325.793 64.7989C325.799 64.74 325.799 64.69 325.807 64.649L325.811 64.583L325.793 64.5205C325.606 63.8835 325.687 63.0467 325.756 62.3116C325.776 62.1135 325.793 61.9315 325.806 61.7513L325.809 61.6674L325.774 61.58C325.646 61.3248 325.677 61.075 325.714 60.7824C325.747 60.5183 325.774 60.2185 325.68 59.9152C325.786 58.5627 325.728 56.9711 325.668 55.5633C325.648 54.9709 325.62 54.407 325.611 53.8842V53.87V53.8521C325.531 53.1901 325.554 52.4782 325.574 51.7823C325.588 51.1614 325.607 50.5279 325.553 49.9391C325.698 49.2664 325.689 48.6526 325.675 48.0014C325.669 47.7052 325.666 47.4072 325.675 47.086L325.678 47.0057L325.655 46.9611C325.802 46.7934 325.836 46.6132 325.761 46.4365C325.827 46.1831 325.841 45.9494 325.845 45.7406C325.85 45.5676 325.859 45.4052 325.889 45.2607L325.908 45.1839L325.885 45.1072C325.848 44.9627 325.885 44.8003 325.922 44.6236C325.97 44.4113 326.029 44.1669 325.94 43.9188C326.182 43.4121 326.243 42.7929 326.287 42.1934L326.308 41.9846C326.329 41.8544 326.282 41.7277 326.177 41.6242C326.177 41.6099 326.177 41.601 326.177 41.601C326.177 41.3352 326.317 41.121 326.492 40.8516C326.676 40.5536 326.887 40.2146 326.945 39.7596L326.949 39.6829L326.945 39.6686C326.97 39.6401 326.995 39.6187 327.018 39.5955C327.131 39.5045 327.306 39.351 327.306 39.1119C327.302 39.0673 327.297 39.0263 327.283 38.9852C327.502 38.7836 327.642 38.557 327.764 38.3536C327.945 38.0413 328.072 37.8236 328.429 37.7219L328.599 37.672L328.643 37.4953C328.695 37.2973 328.868 37.1884 329.139 37.0118C329.344 36.8851 329.571 36.737 329.74 36.5193C329.969 36.5389 330.107 36.48 330.188 36.389C330.464 36.3212 330.678 36.1535 330.853 36.0143C331.142 35.7752 331.244 35.7253 331.441 35.8216L331.637 35.9073L331.766 35.7806C331.775 35.7806 331.784 35.777 331.795 35.777C331.887 35.7485 332.048 35.7092 332.138 35.5558C332.226 35.5361 332.302 35.5147 332.371 35.4933C332.532 35.4344 332.571 35.4291 332.63 35.4558C332.683 35.4933 332.796 35.5326 332.923 35.5005L332.936 35.5237L333.171 35.4915L333.479 35.4541C334.395 35.3327 335.184 35.2328 335.899 35.6164L336.152 35.752L336.308 35.5219C336.336 35.5576 336.372 35.5932 336.4 35.6343C336.584 35.8377 336.906 36.1946 337.371 36.1143C337.475 36.2106 337.589 36.2766 337.69 36.3355C337.729 36.3587 337.787 36.3944 337.822 36.4176V36.4354L337.886 36.5175C338.031 36.7102 338.337 36.8066 338.583 36.8155C339.121 37.3829 339.664 38.1662 339.664 38.5035V38.8211H339.905C339.905 38.83 339.905 38.8336 339.905 38.8389C339.997 39.2582 340.115 39.7828 340.443 40.1307C340.351 40.3431 340.427 40.6018 340.466 40.7089C340.474 40.7463 340.488 40.7909 340.497 40.8302L340.414 41.0693L340.626 41.2816L340.671 41.3102C340.657 41.5261 340.757 41.7295 340.828 41.874C340.846 41.9133 340.867 41.9543 340.881 41.9989L340.832 42.1113C340.549 42.6627 340.933 42.9678 341.111 43.1141C341.143 43.1427 341.161 43.1552 341.179 43.1676C341.037 43.2765 341.048 43.3943 341.014 43.587L341.037 43.8314L341.14 43.9902C341.14 43.9902 341.143 43.9956 341.148 43.9956C341.148 44.0045 341.154 44.0188 341.157 44.0277C341.171 44.0723 341.194 44.1401 341.235 44.2133L341.125 44.3221L341.048 44.6058L341.209 44.8324L341.331 44.9002C341.327 45.0251 341.375 45.1447 341.414 45.2214C341.419 45.2357 341.428 45.2589 341.431 45.2696L341.405 45.4105C341.299 45.9333 341.164 46.6167 341.492 47.1609C341.481 47.1752 341.467 47.1841 341.463 47.1931C341.313 47.3965 341.35 47.6266 341.375 47.7944C341.384 47.8461 341.4 47.9371 341.396 47.9657L341.313 48.2976C341.308 48.3118 341.419 48.3422 341.509 48.36C341.501 48.3921 341.486 48.4225 341.474 48.4581L341.408 48.8382H341.534C341.511 48.9702 341.508 49.0934 341.502 49.2004C341.502 49.3949 341.493 49.5216 341.428 49.6144L341.396 49.659L341.387 49.7143C341.288 50.0551 341.419 50.3798 341.52 50.6475C341.538 50.6957 341.555 50.7421 341.575 50.7867C341.52 50.8527 341.463 50.9366 341.47 51.065C341.47 51.0936 341.486 51.1168 341.492 51.1382L341.423 51.2113L341.486 51.3933C341.52 51.5057 341.584 51.5682 341.66 51.6128L341.612 51.6271C341.598 51.6271 341.598 51.8751 341.598 51.8751V51.9625L341.396 52.025L341.499 52.2337C341.447 52.3283 341.396 52.4675 341.447 52.6245L341.311 52.869C341.32 52.8654 341.338 53.0153 341.456 53.0742C341.334 53.5095 341.644 53.8307 341.833 54.0216C341.916 54.0984 341.962 54.1608 341.999 54.2072H341.842L341.962 54.6212V54.6319C341.938 54.6533 341.907 54.6907 341.884 54.7229L341.617 54.8478L341.706 55.2028L341.677 55.2938C341.617 55.4794 341.667 55.6007 341.718 55.6846C341.73 55.6953 341.741 55.706 341.757 55.7203C341.656 55.8113 341.555 55.9505 341.532 56.1628L341.5 56.4661L341.748 56.5036C341.725 56.5696 341.707 56.6321 341.695 56.691C341.66 56.7998 341.635 56.8962 341.584 56.9729V56.98C341.58 56.9872 341.568 57.005 341.564 57.0175L341.991 57.2584C341.925 57.3672 341.893 57.485 341.869 57.5653C341.853 57.6135 341.838 57.6706 341.823 57.6973C341.812 57.6973 341.803 57.6973 341.789 57.6973L341.437 57.7009L341.454 58.1148C341.472 58.1773 341.485 58.2505 341.492 58.3379C341.501 58.4146 341.509 58.4985 341.531 58.593V59.0106C341.531 59.0623 341.531 59.1497 341.55 59.2407L341.5 59.2657L341.532 59.4995C341.552 59.6137 341.543 59.7332 341.532 59.8403C341.529 59.9063 341.523 59.9866 341.523 60.0562L341.235 60.2061L341.589 60.6004L341.584 60.6182C341.543 60.7128 341.492 60.8377 341.492 60.9876H341.239L341.667 61.5175C341.704 61.555 341.738 61.6781 341.761 61.762C341.766 61.7691 341.766 61.7834 341.771 61.7941C341.591 61.9654 341.564 62.2259 341.554 62.3579C341.545 62.4204 341.536 62.5078 341.522 62.5328C341.522 62.5328 341.527 62.5292 341.527 62.5257L341.637 62.6755C341.554 62.738 341.501 62.8076 341.47 62.8665C341.428 62.9682 341.428 63.0752 341.435 63.1698H341.023L341.361 63.5142L341.044 63.623L341.309 63.8425V64.6972C341.309 64.8542 341.384 64.9862 341.506 65.0487C341.516 65.0523 341.525 65.0523 341.525 65.0523C341.7 65.17 341.883 65.1665 342.033 65.129V65.4876L342.447 65.3627C342.744 65.2717 342.972 65.2574 343.208 65.3074L343.546 65.3734L343.588 65.0326C343.751 63.7533 343.719 62.5132 343.689 61.3141C343.654 60.1436 343.629 59.0355 343.776 57.9507C343.878 57.7348 343.781 57.5367 343.721 57.4386Z" fill="black"></path><path d="M319.39 57.4386L319.465 57.394V57.212L319.399 51.454V51.4362V51.4219C319.293 50.5547 319.275 49.5965 319.252 48.5813C319.229 47.4429 319.201 46.2634 319.047 45.2196C319.022 43.7297 318.729 42.1274 318.446 40.5768L318.253 39.5294L318.239 39.4295L318.164 39.3581C317.936 39.1226 317.858 38.8336 317.77 38.4999C317.697 38.2162 317.619 37.9271 317.444 37.6506C317.064 36.9422 316.459 36.2641 315.921 35.6593L315.894 35.6271C315.756 35.4451 315.601 35.347 315.463 35.2614C315.38 35.2078 315.307 35.1561 315.226 35.0847L315.107 34.9812L315.036 34.9991L314.935 34.9223C314.454 34.5334 314 34.3799 313.479 34.2104L313.467 34.205C313.317 33.9891 313.032 33.9552 312.835 33.9517V33.8071L312.565 33.7697L311.293 33.577L311.105 33.5484L310.987 33.7019C310.948 33.7608 310.933 33.7786 310.666 33.6751C310.542 33.6341 310.408 33.5841 310.263 33.5698L310.111 33.5556L310.042 33.6287C310.001 33.6002 309.955 33.5698 309.895 33.5377L309.368 33.3789L309.327 33.6287C309.092 33.6234 308.89 33.668 308.722 33.759H307.882L307.107 33.7679L307.193 34.0712L307.177 34.0855C306.839 33.9891 306.578 34.2015 306.436 34.3246C306.406 34.3478 306.379 34.3692 306.362 34.3835C306.086 34.4263 305.925 34.5459 305.815 34.6315C305.732 34.6939 305.705 34.7171 305.631 34.7225L305.498 34.7314L305.415 34.8403C305.297 34.9759 304.93 35.1436 304.738 35.2346L304.306 35.4237L304.401 35.5183C304.334 35.5468 304.26 35.5915 304.196 35.6486H303.784V35.9787C303.766 35.9751 303.749 35.9751 303.738 35.9697L303.51 35.8698C303.487 35.8662 303.34 36.0732 303.34 36.0732C303.089 36.4247 302.763 36.778 302.416 37.1438C302.011 37.581 301.595 38.0288 301.273 38.5177L301.171 38.6569L301.236 38.8068C301.158 38.8514 300.966 38.9781 300.934 39.2136C300.773 39.3867 300.737 39.6169 300.714 39.7703C300.711 39.8149 300.697 39.8827 300.686 39.9148C300.518 40.1165 300.476 40.3252 300.449 40.4823C300.431 40.6036 300.417 40.6714 300.366 40.7356L300.164 40.9944L300.256 41.0675C300.196 41.2245 300.191 41.3833 300.191 41.4815C300.191 41.5261 300.191 41.576 300.187 41.6171L300.051 41.6974L300.083 41.9008C300.139 42.3076 300.086 42.6859 300.033 43.0784C299.982 43.4638 299.932 43.8528 299.977 44.29C299.816 44.5291 299.855 44.8092 299.881 44.9912C299.89 45.0483 299.904 45.1357 299.899 45.1714L299.692 45.3356L299.839 45.58C299.948 45.7656 299.862 46.0636 299.773 46.3473C299.699 46.6185 299.603 46.9486 299.704 47.2412C299.678 47.2609 299.655 47.2858 299.63 47.318C299.594 47.3626 299.568 47.4536 299.571 47.5535C299.571 47.7801 299.548 47.8479 299.541 47.864L299.391 48.178L299.364 48.2993L299.639 48.4903C299.61 48.6758 299.63 48.8489 299.655 49.0024C299.69 49.2076 299.694 49.2986 299.633 49.3824L299.462 49.6929L299.63 49.8945C299.63 49.9159 299.63 49.932 299.63 49.9498C299.621 50.089 299.612 50.3442 299.782 50.5279C299.787 50.5636 299.791 50.594 299.805 50.6261L299.494 50.7099L299.695 51.1453C299.692 51.1739 299.683 51.2149 299.678 51.2506C299.646 51.3755 299.586 51.6342 299.713 51.8573C299.617 52.1088 299.678 52.3515 299.717 52.5192C299.725 52.5638 299.747 52.6334 299.75 52.6727C299.456 52.9867 299.603 53.3971 299.681 53.6166C299.541 53.8254 299.575 54.0734 299.603 54.2268L299.209 54.366L299.612 54.78C299.594 54.8674 299.594 54.978 299.66 55.0976C299.704 55.1672 299.766 55.2118 299.828 55.2367L299.706 55.2814C299.709 55.2956 299.718 55.3099 299.724 55.3224H299.72L299.867 55.6917L299.858 55.7328C299.824 55.9487 299.876 56.161 299.98 56.3287C299.945 56.3734 299.92 56.4376 299.911 56.5107L299.757 56.6678L299.911 56.8908C300.031 57.0621 299.985 57.2923 299.899 57.6474C299.821 57.9543 299.724 58.3575 299.902 58.6965L299.683 58.9124L299.959 59.1248C299.954 59.139 299.945 59.1533 299.941 59.1658C299.867 59.2943 299.74 59.5494 299.904 59.8135L299.886 59.7814C299.947 59.9134 299.918 60.1258 299.89 60.3452C299.855 60.67 299.807 61.0625 299.977 61.4533L299.922 61.8441L299.938 61.7923C299.89 61.9458 299.927 62.0742 299.977 62.1652L299.849 62.2241L299.936 62.4989C300.021 62.7808 300.024 63.1234 300.031 63.4928C300.031 64.1904 300.031 64.9737 300.654 65.5768L300.785 65.7017L300.966 65.6464C301.429 65.5144 301.45 65.0433 301.466 64.7989C301.466 64.74 301.472 64.69 301.475 64.649L301.484 64.583L301.466 64.5205C301.279 63.8835 301.355 63.0467 301.429 62.3116C301.443 62.1135 301.463 61.9315 301.477 61.7513L301.48 61.6674L301.443 61.58C301.316 61.3248 301.346 61.075 301.385 60.7824C301.417 60.5183 301.449 60.2185 301.351 59.9152C301.463 58.5627 301.397 56.9711 301.342 55.5633C301.319 54.9709 301.298 54.407 301.289 53.8842V53.87L301.286 53.8521C301.208 53.1901 301.226 52.4782 301.249 51.7823C301.266 51.1614 301.286 50.5279 301.226 49.9391C301.373 49.2664 301.362 48.6526 301.353 48.0014C301.348 47.7052 301.344 47.4072 301.353 47.086V47.0057L301.335 46.9611C301.479 46.7934 301.511 46.6132 301.436 46.4365C301.507 46.1831 301.514 45.9494 301.519 45.7406C301.528 45.5676 301.534 45.4052 301.571 45.2607L301.583 45.1839L301.565 45.1072C301.523 44.9627 301.562 44.8003 301.601 44.6236C301.645 44.4113 301.702 44.1669 301.615 43.9188C301.863 43.4121 301.917 42.7929 301.969 42.1934L301.986 41.9846C302.004 41.8544 301.963 41.7277 301.859 41.6242C301.859 41.6099 301.859 41.601 301.859 41.601C301.859 41.3352 301.995 41.121 302.165 40.8516C302.353 40.5536 302.565 40.2146 302.62 39.7596L302.629 39.6829L302.625 39.6686C302.646 39.6401 302.669 39.6187 302.696 39.5955C302.813 39.5045 302.986 39.351 302.981 39.1119C302.981 39.0673 302.972 39.0263 302.963 38.9852C303.184 38.7836 303.317 38.557 303.441 38.3536C303.619 38.0413 303.747 37.8236 304.106 37.7219L304.276 37.672L304.32 37.4953C304.377 37.2973 304.547 37.1884 304.817 37.0118C305.022 36.8851 305.247 36.737 305.417 36.5193C305.645 36.5389 305.785 36.48 305.866 36.389C306.146 36.3212 306.356 36.1535 306.532 36.0143C306.825 35.7752 306.921 35.7253 307.119 35.8216L307.315 35.9073L307.443 35.7806C307.452 35.7806 307.466 35.777 307.466 35.777C307.561 35.7485 307.719 35.7092 307.814 35.5558C307.901 35.5361 307.984 35.5147 308.046 35.4933C308.207 35.4344 308.25 35.4291 308.304 35.4558C308.365 35.4933 308.469 35.5326 308.602 35.5005L308.61 35.5237L308.846 35.4915L309.152 35.4541C310.07 35.3327 310.857 35.2328 311.572 35.6164L311.83 35.752L311.983 35.5219C312.014 35.5576 312.05 35.5932 312.078 35.6343C312.262 35.8377 312.582 36.1946 313.046 36.1143C313.147 36.2106 313.26 36.2766 313.361 36.3355C313.403 36.3587 313.456 36.3944 313.501 36.4176V36.4354L313.559 36.5175C313.706 36.7102 314.014 36.8066 314.256 36.8155C314.797 37.3829 315.339 38.1662 315.339 38.5035V38.8211H315.576C315.576 38.83 315.576 38.8336 315.576 38.8389C315.668 39.2582 315.788 39.7828 316.114 40.1307C316.022 40.3431 316.101 40.6018 316.137 40.7089C316.146 40.7463 316.16 40.7909 316.169 40.8302L316.093 41.0693L316.3 41.2816L316.349 41.3102C316.335 41.5261 316.432 41.7295 316.505 41.874C316.522 41.9133 316.542 41.9543 316.561 41.9989L316.51 42.1113C316.222 42.6627 316.607 42.9678 316.79 43.1141C316.816 43.1427 316.834 43.1552 316.86 43.1676C316.717 43.2765 316.721 43.3943 316.691 43.587L316.717 43.8314L316.813 43.9902C316.821 43.9956 316.816 43.9956 316.821 43.9956C316.825 44.0045 316.825 44.0188 316.83 44.0277C316.85 44.0723 316.867 44.1401 316.908 44.2133L316.798 44.3221L316.724 44.6058L316.88 44.8324L317.007 44.9002C316.998 45.0251 317.055 45.1447 317.09 45.2214C317.094 45.2357 317.099 45.2589 317.108 45.2696L317.076 45.4105C316.97 45.9333 316.843 46.6167 317.163 47.1609C317.154 47.1752 317.145 47.1841 317.136 47.1931C316.99 47.3965 317.025 47.6266 317.053 47.7944C317.057 47.8461 317.076 47.9371 317.066 47.9657L316.982 48.2976C316.979 48.3118 317.092 48.3422 317.179 48.36C317.17 48.3921 317.156 48.4225 317.152 48.4581L317.078 48.8382H317.205C317.188 48.9702 317.184 49.0934 317.179 49.2004C317.175 49.3949 317.17 49.5216 317.101 49.6144L317.074 49.659L317.06 49.7143C316.968 50.0551 317.092 50.3798 317.197 50.6475C317.214 50.6957 317.234 50.7421 317.248 50.7867C317.197 50.8527 317.142 50.9366 317.151 51.065C317.151 51.0936 317.159 51.1168 317.168 51.1382L317.094 51.2113L317.159 51.3933C317.195 51.5057 317.255 51.5682 317.335 51.6128L317.283 51.6271C317.271 51.6271 317.271 51.8751 317.271 51.8751V51.9625L317.074 52.025L317.17 52.2337C317.126 52.3283 317.069 52.4675 317.126 52.6245L316.988 52.869C316.991 52.8654 317.014 53.0153 317.135 53.0742C317.004 53.5095 317.319 53.8307 317.51 54.0216C317.586 54.0984 317.637 54.1608 317.672 54.2072H317.513L317.632 54.6212L317.637 54.6319C317.611 54.6533 317.58 54.6907 317.554 54.7229L317.292 54.8478L317.379 55.2028L317.352 55.2938C317.287 55.4794 317.338 55.6007 317.391 55.6846C317.4 55.6953 317.416 55.706 317.428 55.7203C317.333 55.8113 317.227 55.9505 317.204 56.1628L317.175 56.4661L317.419 56.5036C317.395 56.5696 317.377 56.6321 317.363 56.691C317.331 56.7998 317.306 56.8962 317.253 56.9729L317.257 56.98C317.248 56.9872 317.239 57.005 317.234 57.0175L317.66 57.2584C317.602 57.3672 317.563 57.485 317.542 57.5653C317.529 57.6135 317.51 57.6706 317.496 57.6973C317.487 57.6973 317.478 57.6973 317.464 57.6973L317.105 57.7009L317.124 58.1148C317.147 58.1773 317.156 58.2505 317.165 58.3379C317.168 58.4146 317.179 58.4985 317.202 58.593V59.0106C317.202 59.0623 317.202 59.1497 317.221 59.2407L317.17 59.2657L317.207 59.4995C317.223 59.6137 317.216 59.7332 317.207 59.8403C317.204 59.9063 317.193 59.9866 317.198 60.0562L316.91 60.2061L317.264 60.6004C317.258 60.604 317.255 60.6147 317.255 60.6147C317.212 60.7128 317.168 60.8377 317.168 60.9876H316.91L317.342 61.5175C317.379 61.555 317.412 61.6781 317.434 61.762C317.439 61.7691 317.442 61.7834 317.442 61.7941C317.267 61.9654 317.241 62.2259 317.227 62.3579C317.216 62.4204 317.211 62.5078 317.193 62.5328C317.193 62.5328 317.197 62.5292 317.202 62.5257L317.313 62.6755C317.227 62.738 317.174 62.8076 317.147 62.8665C317.101 62.9682 317.096 63.0752 317.11 63.1698H316.694L317.039 63.5142L316.717 63.623L316.984 63.8425V64.6972C316.984 64.8542 317.059 64.9862 317.186 65.0487C317.195 65.0523 317.198 65.0523 317.198 65.0523C317.373 65.17 317.561 65.1665 317.713 65.129V65.4876L318.12 65.3627C318.417 65.2717 318.649 65.2574 318.886 65.3074L319.222 65.3734L319.267 65.0326C319.428 63.7533 319.394 62.5132 319.362 61.3141C319.33 60.1436 319.302 59.0355 319.454 57.9507C319.548 57.7348 319.456 57.5367 319.39 57.4386Z" fill="black"></path><path d="M367.627 57.872L367.705 57.8274L367.699 57.6454L367.636 51.8874V51.8732V51.8553C367.529 50.9881 367.512 50.0335 367.49 49.0183C367.46 47.8745 367.439 46.6986 367.289 45.6602C367.259 44.1649 366.965 42.568 366.682 41.021L366.489 39.9646L366.471 39.8683L366.402 39.7916C366.174 39.5614 366.095 39.2723 366.008 38.9351C365.934 38.6514 365.857 38.3623 365.682 38.0858C365.3 37.3792 364.69 36.6994 364.155 36.0945L364.127 36.0624C363.994 35.8804 363.839 35.7822 363.701 35.6966C363.623 35.643 363.543 35.5913 363.467 35.5199L363.343 35.4146L363.267 35.4325L363.17 35.3522C362.687 34.9632 362.239 34.8133 361.716 34.6385L361.702 34.6349C361.551 34.4172 361.266 34.3851 361.07 34.3762V34.237L360.796 34.196L359.529 34.0068L359.341 33.9747L359.228 34.1335C359.184 34.1924 359.17 34.2067 358.897 34.1103C358.779 34.0711 358.644 34.0157 358.497 34.0015L358.351 33.9872L358.276 34.0603C358.237 34.0264 358.19 34.0015 358.131 33.9729L357.602 33.8105L357.563 34.055C357.328 34.055 357.126 34.1032 356.956 34.1906H356.118L355.343 34.1942L355.435 34.4975C355.423 34.5029 355.423 34.5064 355.414 34.5154C355.076 34.4208 354.809 34.6331 354.669 34.7562C354.642 34.7794 354.612 34.8008 354.598 34.8133C354.319 34.8633 354.166 34.9775 354.051 35.0667C353.968 35.1256 353.945 35.1488 353.867 35.1541L353.736 35.1631L353.648 35.2719C353.538 35.4164 353.17 35.5699 352.969 35.6662L352.542 35.8536L352.64 35.9446C352.572 35.9767 352.498 36.0213 352.433 36.0802H352.022V36.4156C352.008 36.4156 351.985 36.4103 351.976 36.4067L351.743 36.3068C351.725 36.2961 351.576 36.5049 351.576 36.5049C351.325 36.8564 350.999 37.2097 350.651 37.579C350.246 38.0126 349.83 38.4605 349.51 38.9494L349.405 39.0975L349.471 39.2384C349.397 39.2866 349.2 39.4097 349.163 39.6453C349.007 39.8165 348.972 40.0521 348.949 40.202C348.94 40.2501 348.928 40.3179 348.919 40.3411C348.751 40.5535 348.708 40.7605 348.682 40.9139C348.664 41.0352 348.65 41.103 348.599 41.1673L348.397 41.4296L348.489 41.4956C348.425 41.6508 348.425 41.8168 348.425 41.9113C348.425 41.9506 348.42 42.0148 348.416 42.0469L348.284 42.1272L348.316 42.3342C348.372 42.7428 348.321 43.1122 348.268 43.5136C348.216 43.8973 348.169 44.2863 348.208 44.7198C348.05 44.9589 348.094 45.2426 348.116 45.4211C348.124 45.4835 348.139 45.5638 348.133 45.6013L347.928 45.7637L348.075 46.0081C348.186 46.1937 348.098 46.4917 348.015 46.7772C347.937 47.0484 347.84 47.3874 347.937 47.6711C347.914 47.6925 347.889 47.7175 347.868 47.7514C347.831 47.7996 347.806 47.8834 347.81 47.9923C347.81 48.2082 347.785 48.2742 347.776 48.2956L347.631 48.6061L347.603 48.731L347.875 48.9219C347.843 49.1093 347.866 49.2805 347.891 49.4304C347.923 49.6392 347.932 49.7302 347.871 49.8105L347.698 50.1281L347.866 50.3262C347.866 50.344 347.866 50.3618 347.866 50.3779C347.857 50.5171 347.843 50.7722 348.018 50.956C348.024 50.9935 348.032 51.0256 348.036 51.0577L347.73 51.1416L347.932 51.577C347.926 51.6091 347.917 51.6465 347.909 51.6858C347.873 51.8107 347.82 52.0659 347.948 52.2889C347.85 52.5405 347.91 52.7903 347.956 52.9544C347.965 52.9991 347.981 53.0633 347.986 53.1043C347.693 53.4148 347.834 53.8252 347.917 54.0411C347.778 54.2534 347.811 54.5086 347.838 54.6549L347.443 54.7905L347.848 55.2116C347.829 55.3062 347.829 55.4097 347.894 55.5292C347.942 55.5988 348.004 55.6416 348.063 55.672L347.94 55.7076C347.944 55.7291 347.949 55.7362 347.958 55.7487H347.955L348.096 56.1252L348.093 56.1609C348.057 56.3803 348.11 56.5998 348.215 56.7604C348.178 56.8121 348.155 56.8692 348.151 56.9424L347.992 57.0994L348.146 57.3224C348.266 57.5009 348.22 57.7239 348.128 58.0826C348.054 58.393 347.956 58.7892 348.137 59.1353L347.917 59.3548L348.197 59.5564C348.188 59.5707 348.178 59.585 348.174 59.5975C348.1 59.7331 347.971 59.9811 348.132 60.2487L348.117 60.2166C348.178 60.3451 348.151 60.5538 348.123 60.7804C348.086 61.1052 348.04 61.4977 348.211 61.8849L348.16 62.2721L348.169 62.2311C348.124 62.3774 348.16 62.5059 348.206 62.604L348.084 62.6629L348.169 62.927C348.261 63.2125 348.261 63.564 348.261 63.928C348.268 64.6221 348.268 65.409 348.887 66.0049L349.023 66.1405L349.202 66.0852C349.667 65.946 349.687 65.4821 349.704 65.2287C349.704 65.1806 349.708 65.127 349.713 65.0824L349.717 65.0164L349.704 64.9504C349.517 64.3134 349.593 63.4801 349.662 62.745C349.68 62.5469 349.699 62.3649 349.713 62.1865L349.717 62.0955L349.68 62.0188C349.552 61.76 349.584 61.5067 349.623 61.214C349.655 60.9535 349.685 60.6502 349.588 60.3469C349.699 59.0015 349.634 57.4099 349.579 55.9949C349.556 55.399 349.535 54.8351 349.526 54.3248L349.52 54.3034V54.282C349.443 53.6236 349.466 52.9063 349.483 52.2193C349.503 51.5948 349.52 50.9578 349.466 50.3725C349.609 49.7034 349.604 49.0825 349.588 48.4348C349.584 48.1422 349.573 47.8317 349.588 47.5176V47.4356L349.57 47.3963C349.713 47.225 349.749 47.0448 349.671 46.8628C349.74 46.6148 349.749 46.3793 349.759 46.1669C349.763 45.9992 349.768 45.8457 349.8 45.6976L349.819 45.6156L349.796 45.5388C349.759 45.3943 349.796 45.2319 349.835 45.0642C349.88 44.8465 349.936 44.5985 349.849 44.3505C350.099 43.8455 350.152 43.2264 350.202 42.6251L350.221 42.4234C350.239 42.2878 350.198 42.1647 350.094 42.0576V42.0344C350.094 41.7686 350.225 41.5545 350.4 41.285C350.587 40.9871 350.8 40.6552 350.856 40.1877L350.865 40.1145L350.86 40.102C350.879 40.0788 350.904 40.0574 350.932 40.0342C351.044 39.9343 351.221 39.7844 351.215 39.5471C351.215 39.5061 351.206 39.4561 351.192 39.4204C351.412 39.2188 351.551 38.9922 351.674 38.7852C351.854 38.4819 351.98 38.2606 352.339 38.1607L352.514 38.1072L352.558 37.9359C352.608 37.7378 352.779 37.6236 353.054 37.4523C353.255 37.3221 353.48 37.1775 353.65 36.9563C353.878 36.9795 354.021 36.9117 354.099 36.826C354.373 36.7582 354.589 36.5959 354.764 36.4513C355.058 36.2158 355.155 36.1623 355.352 36.2586L355.552 36.3478L355.676 36.2229C355.69 36.2176 355.699 36.2176 355.707 36.2176C355.794 36.1944 355.957 36.1409 356.047 35.9928C356.134 35.9731 356.213 35.9517 356.281 35.9285C356.442 35.8714 356.479 35.8661 356.539 35.8964C356.599 35.9285 356.705 35.9696 356.836 35.9374L356.845 35.9589L357.08 35.9267L357.388 35.8911C358.306 35.7697 359.094 35.6698 359.808 36.0534L360.061 36.198L360.219 35.9624C360.251 35.9999 360.281 36.0392 360.314 36.0677C360.495 36.2747 360.819 36.6315 361.282 36.5513C361.383 36.6423 361.498 36.7136 361.599 36.7779C361.641 36.7993 361.696 36.8314 361.73 36.8546V36.8671L361.795 36.9545C361.942 37.1472 362.25 37.2418 362.492 37.2525C363.03 37.8199 363.575 38.5979 363.575 38.9404V39.2563H363.812L363.818 39.2795C363.906 39.7041 364.023 40.2234 364.35 40.5624C364.258 40.7801 364.338 41.0424 364.373 41.1494C364.387 41.1815 364.396 41.2315 364.407 41.2672L364.329 41.5063L364.539 41.7186L364.58 41.7454C364.569 41.9631 364.672 42.1754 364.741 42.3146C364.755 42.3521 364.778 42.3967 364.789 42.4359L364.746 42.5519C364.462 43.0997 364.842 43.4066 365.026 43.5511C365.052 43.5743 365.074 43.5904 365.095 43.61C364.952 43.7224 364.955 43.8313 364.929 44.0293L364.952 44.2684L365.047 44.4272L365.058 44.4308C365.061 44.4415 365.067 44.4504 365.067 44.4629C365.086 44.5129 365.104 44.5753 365.144 44.6485L365.035 44.7573L364.96 45.041L365.121 45.2765L365.24 45.3354C365.235 45.4657 365.291 45.5799 365.323 45.6602C365.332 45.6744 365.337 45.6923 365.341 45.7048L365.314 45.8493C365.208 46.3739 365.074 47.0555 365.401 47.6051C365.392 47.6104 365.383 47.6194 365.383 47.6194C365.226 47.8317 365.263 48.0619 365.291 48.2278C365.295 48.2831 365.314 48.3777 365.304 48.4062L365.226 48.731C365.222 48.7488 365.327 48.7756 365.422 48.7934C365.408 48.8255 365.396 48.8559 365.385 48.8951L365.316 49.2752H365.449C365.42 49.4037 365.42 49.5268 365.417 49.6338C365.412 49.8283 365.406 49.955 365.337 50.0549L365.311 50.0995L365.297 50.1477C365.205 50.4957 365.328 50.8168 365.428 51.0809C365.451 51.1291 365.47 51.1826 365.484 51.2272C365.428 51.2897 365.378 51.37 365.382 51.4949C365.382 51.527 365.396 51.5502 365.405 51.5787L365.336 51.6448L365.396 51.8357C365.428 51.9374 365.493 52.007 365.576 52.0444L365.52 52.0552C365.507 52.0587 365.507 52.3103 365.507 52.3103V52.4013L365.311 52.4531L365.412 52.6654C365.36 52.7671 365.305 52.8991 365.36 53.0597L365.224 53.3042C365.224 53.3042 365.247 53.4505 365.373 53.5094C365.242 53.9483 365.558 54.2659 365.741 54.4533C365.82 54.5407 365.875 54.5924 365.912 54.6442H365.753L365.872 55.0528L365.875 55.0635C365.849 55.0956 365.82 55.1224 365.792 55.1581L365.532 55.2865L365.615 55.6381L365.587 55.7291C365.532 55.9146 365.578 56.0431 365.626 56.1163C365.64 56.1341 365.656 56.1377 365.663 56.1519C365.571 56.2501 365.466 56.3821 365.447 56.5945L365.415 56.8978L365.659 56.9388C365.638 57.0013 365.617 57.0637 365.603 57.1208C365.571 57.2422 365.548 57.3367 365.493 57.4134H365.498C365.493 57.4277 365.479 57.442 365.475 57.4545L365.9 57.6918C365.842 57.806 365.803 57.9148 365.781 58.0058C365.764 58.0433 365.744 58.104 365.73 58.1307C365.73 58.1307 365.716 58.1307 365.704 58.1307L365.344 58.1343L365.364 58.5554C365.383 58.6179 365.394 58.6839 365.401 58.7749C365.41 58.8516 365.419 58.939 365.44 59.03V59.444C365.44 59.4993 365.445 59.5832 365.461 59.6742L365.415 59.7027L365.447 59.9365C365.466 60.0507 365.456 60.1666 365.447 60.2808C365.438 60.3433 365.438 60.4164 365.438 60.4967L365.144 60.6395L365.502 61.0338C365.498 61.0374 365.493 61.0517 365.493 61.0588C365.456 61.1534 365.405 61.2818 365.405 61.4246H365.146L365.578 61.951C365.615 61.992 365.649 62.1151 365.672 62.1954C365.675 62.2133 365.681 62.224 365.681 62.2329C365.505 62.4042 365.479 62.654 365.465 62.7967C365.454 62.852 365.449 62.9395 365.436 62.968V62.9591L365.546 63.1054C365.465 63.1679 365.415 63.241 365.382 63.2999C365.336 63.4016 365.336 63.5015 365.348 63.5997H364.932L365.277 63.9476L364.953 64.0529L365.219 64.2759V65.136C365.219 65.2894 365.298 65.4143 365.415 65.4839C365.415 65.4839 365.435 65.491 365.443 65.491C365.61 65.6052 365.796 65.5963 365.949 65.5642V65.9157L366.355 65.7944C366.654 65.7034 366.882 65.6855 367.117 65.7355L367.455 65.8051L367.501 65.4607C367.662 64.1885 367.628 62.9413 367.598 61.7458C367.565 60.5753 367.538 59.4708 367.685 58.3859C367.788 58.1754 367.692 57.9791 367.627 57.872Z" fill="black"></path><path d="M377.237 1.08008H289.637V89.4286H377.239L377.237 1.08008ZM372.602 84.7697H294.255V5.74963H372.602V84.7697V84.7697Z" fill="black"></path></svg> 