<?xml version="1.0" encoding="UTF-8"?> <svg xmlns="http://www.w3.org/2000/svg" width="782" height="168" viewBox="0 0 782 168" fill="none"><g clip-path="url(#clip0)"><g clip-path="url(#clip1)"><path d="M82.9109 0.992194C70.7734 0.987507 58.7829 3.64947 47.7855 8.79022C36.7881 13.931 27.0519 21.4252 19.264 30.744C11.4762 40.0628 5.82647 50.979 2.71369 62.7222C-0.399085 74.4654 -0.899089 86.7493 1.24898 98.7071C3.39704 110.665 8.14082 122.005 15.1455 131.927C22.1502 141.849 31.2451 150.111 41.7882 156.131C52.3313 162.15 64.0658 165.78 76.1634 166.763C88.261 167.747 100.427 166.061 111.802 161.824L114.802 160.634L108.35 151.599C107.19 152.023 106.03 152.448 104.841 152.816C87.7919 158.282 69.3226 157.216 53.0138 149.825C36.705 142.434 23.7185 129.245 16.5719 112.815C9.42527 96.3849 8.6276 77.8837 14.3335 60.8982C20.0395 43.9126 31.8425 29.6528 47.4546 20.8831C63.0666 12.1134 81.3755 9.45856 98.8319 13.4332C116.288 17.4078 131.648 27.7288 141.935 42.3953C152.221 57.0618 156.701 75.0291 154.506 92.814C152.311 110.599 143.597 126.934 130.054 138.654L129.743 138.909L128.526 137.379L126.092 134.292L123.517 131.034L116.726 122.537L101.955 103.983L93.1828 92.8799H78.4965L91.5415 109.875C88.8801 110.676 86.1145 111.077 83.3353 111.065C77.0123 111.046 70.8777 108.908 65.9104 104.992C60.943 101.075 57.4292 95.6064 55.9295 89.4576C54.4299 83.3088 55.0307 76.8343 57.6363 71.0673C60.2419 65.3003 64.7021 60.573 70.3051 57.6396C75.9082 54.7063 82.3313 53.736 88.5496 54.8835C94.7679 56.031 100.423 59.2302 104.613 63.9707C108.803 68.7112 111.286 74.7197 111.665 81.0377C112.045 87.3556 110.3 93.6189 106.709 98.8282L102.351 93.3897H98.1065L104.558 101.547L119.358 120.299L126.489 129.363L127.168 130.241L129.828 133.612C130.733 132.762 131.61 131.884 132.431 130.978C143.722 118.986 150.277 103.296 150.877 86.8285C151.477 70.3606 146.08 54.2352 135.692 41.452C125.303 28.6687 110.629 20.0979 94.4003 17.3338C78.1711 14.5697 61.4914 17.8005 47.4639 26.4252C33.4363 35.05 23.016 48.4815 18.1412 64.2213C13.2664 79.961 14.269 96.9374 20.9626 111.993C27.6562 127.048 39.5849 139.157 54.53 146.067C69.475 152.977 86.4189 154.218 102.21 149.559C103.455 149.191 104.7 148.766 105.945 148.341L103.341 144.715C102.04 145.169 100.71 145.594 99.3516 145.933C84.4899 149.941 68.6826 148.443 54.8357 141.716C40.9889 134.989 30.0331 123.485 23.9825 109.319C17.9319 95.1526 17.1931 79.2761 21.902 64.6081C26.6108 49.9401 36.4508 37.4665 49.613 29.4803C62.7752 21.4942 78.375 18.5322 93.5445 21.1391C108.714 23.7459 122.434 31.7463 132.181 43.6694C141.929 55.5926 147.049 70.6371 146.601 86.0374C146.153 101.438 140.167 116.158 129.743 127.494V127.494L129.064 126.644L121.763 117.665C130.473 108.094 135.299 95.6134 135.295 82.6673C135.292 69.7211 130.46 57.2427 121.745 47.6767C113.031 38.1108 101.062 32.1467 88.1837 30.9529C75.3056 29.7591 62.4462 33.4217 52.125 41.2231C41.8037 49.0245 34.7644 60.4024 32.3861 73.1278C30.0079 85.8532 32.4622 99.0089 39.268 110.018C46.0739 121.026 56.741 129.094 69.1793 132.641C81.6177 136.188 94.9309 134.959 106.511 129.193L113.5 138.229L116.047 141.515L118.48 144.659L124.904 152.958L125.753 154.063L126.291 154.743C129.939 152.493 133.403 149.954 136.647 147.151C149.544 136.137 158.758 121.43 163.048 105.013C167.337 88.5952 166.496 71.256 160.637 55.3318C154.778 39.4077 144.183 25.664 130.281 15.953C116.378 6.24195 99.8355 1.03035 82.8826 1.02052L82.9109 0.992194Z" fill="black"></path><path fill-rule="evenodd" clip-rule="evenodd" d="M290.358 120.979H286.509C282.82 123.399 278.465 124.598 274.058 124.406C271.188 124.421 268.33 124.03 265.569 123.245C261.469 122.052 257.444 120.614 253.515 118.94C249.623 117.393 245.477 116.586 241.29 116.56C244.755 113.959 248.471 111.71 252.383 109.847V109.847C255.737 108.915 258.939 107.503 261.891 105.655C265.132 103.619 267.893 100.903 269.984 97.6955C273.618 92.2604 275.585 85.8804 275.643 79.3406C275.613 71.5744 272.859 64.0656 267.861 58.1248C264.432 54.4797 260.251 51.6261 255.609 49.7623C250.966 47.8986 245.974 47.0696 240.979 47.3329V47.3329C236.068 47.0865 231.16 47.8602 226.563 49.6054C221.966 51.3506 217.779 54.0295 214.266 57.4734C208.906 63.3609 205.904 71.0213 205.836 78.9869C205.768 86.9525 208.639 94.6631 213.899 100.641C216.927 103.958 220.646 106.569 224.793 108.289C230.456 110.583 236.546 111.627 242.649 111.348C238.489 113.699 234.386 116.192 230.396 118.826C229.009 119.734 227.694 120.747 226.463 121.857C225.444 122.735 224.567 124.69 225.84 125.653C228.104 127.55 230.792 124.576 232.094 123.16C234.153 120.98 236.992 119.707 239.989 119.619C244.827 119.921 249.351 122.119 252.581 125.738C254.104 126.999 255.69 128.181 257.335 129.278C265.683 134.519 280.142 134.575 286.99 126.163C288.256 124.532 289.382 122.798 290.358 120.979V120.979ZM258.608 95.8826C257.227 99.0143 255.027 101.715 252.241 103.7C248.935 106.012 244.95 107.149 240.922 106.93C223.944 106.93 219.926 92.5969 219.926 79.114C219.926 64.4697 224.652 51.5533 240.838 51.6666C257.816 51.8083 261.721 65.971 261.664 79.114C261.876 84.8687 260.833 90.6005 258.608 95.911V95.8826Z" fill="black"></path><path fill-rule="evenodd" clip-rule="evenodd" d="M345.311 51.6373C346.967 51.6343 348.618 51.8148 350.235 52.1755C351.376 52.3931 352.412 52.9843 353.18 53.856C353.949 54.7278 354.406 55.8306 354.479 56.9908C354.644 58.5429 354.71 60.104 354.677 61.6645V84.5514C354.677 92.3126 354.14 100.952 346.386 105.201C343.624 106.781 340.498 107.612 337.317 107.612C334.136 107.612 331.01 106.781 328.248 105.201C326.176 103.972 324.453 102.235 323.239 100.153C322.026 98.0709 321.364 95.7136 321.315 93.304C321.026 90.9075 320.894 88.4947 320.919 86.081V59.7384C320.851 58.191 321.071 56.6444 321.57 55.178C321.833 54.5635 322.221 54.01 322.708 53.5519C323.194 53.0938 323.77 52.741 324.399 52.5154C326.222 51.904 328.136 51.6071 330.059 51.6373V48.4648H299.441V51.6656C300.473 51.6613 301.503 51.7275 302.526 51.8639C304.104 51.9501 305.616 52.5241 306.855 53.5068C308.186 55.2969 308.811 57.5158 308.609 59.7384C308.609 64.0438 308.609 89.9899 308.836 91.6895C308.931 93.1536 309.168 94.605 309.543 96.0232C310.496 100.632 313.193 104.692 317.07 107.353C322.251 110.592 328.252 112.273 334.36 112.197C338.508 112.079 342.6 111.215 346.443 109.648C350.581 108.066 354.014 105.051 356.12 101.15C357.233 99.158 358.008 96.9947 358.413 94.7486C358.776 91.5424 358.927 88.3158 358.865 85.0896V61.6645C358.814 59.7666 358.956 57.8684 359.29 55.9994C359.672 54.8021 360.428 53.7594 361.447 53.0251C362.466 52.2907 363.694 51.9035 364.949 51.9206L367.609 51.7789V48.4648H345.311V51.6373Z" fill="black"></path><path fill-rule="evenodd" clip-rule="evenodd" d="M450.011 107.779C448.429 107.779 446.869 107.41 445.455 106.702C444.203 105.993 443.212 104.901 442.625 103.586C441.449 101.27 440.409 98.8866 439.512 96.4483L420.1 47.332H416.45L398.255 94.9188C397.268 97.6304 396.056 100.255 394.633 102.765C393.933 104.263 392.822 105.53 391.429 106.418C390.035 107.306 388.418 107.778 386.766 107.779V110.951H407.565V107.779C405.782 107.779 402.132 107.495 400.915 105.484C400.564 104.645 400.383 103.745 400.383 102.836C400.383 101.926 400.564 101.026 400.915 100.187L403.433 93.1626H424.854L427.826 101.15C428.22 102.122 428.422 103.161 428.42 104.21C428.509 104.903 428.338 105.605 427.941 106.18C427.544 106.755 426.949 107.163 426.269 107.325C424.596 107.75 422.874 107.95 421.147 107.92V111.064H450.011V107.779ZM423.44 89.8202H404.735L413.507 66.5084H414.271L423.44 89.8202Z" fill="black"></path><path fill-rule="evenodd" clip-rule="evenodd" d="M536.94 107.723C535.638 107.574 534.367 107.221 533.176 106.675V106.675C531.725 105.84 530.455 104.722 529.441 103.389C527.685 101.175 526.051 98.8683 524.545 96.4776C522.197 92.7387 519.707 89.0847 517.075 85.5723C515.186 83.2414 512.847 81.3148 510.199 79.9072C513.527 79.267 516.682 77.9248 519.452 75.97C522.268 73.8762 524.207 70.8097 524.892 67.3657C525.577 63.9217 524.959 60.3457 523.159 57.3319C519.452 50.8453 512.123 48.8342 505.247 48.1261C500.719 47.7295 496.163 47.5029 491.607 47.4746L469.536 48.1261V51.4118C470.557 51.4215 471.577 51.4877 472.592 51.6101C474.162 51.7156 475.663 52.2987 476.893 53.2813C478.202 55.0727 478.834 57.2708 478.676 59.4846V99.7067C478.676 106.703 475.535 107.723 469.536 107.779V110.952H500.266V107.808C497.578 107.808 492.739 107.355 491.579 104.125C491.145 102.694 490.944 101.202 490.985 99.7067V82.5132H493.815C496.015 82.4553 498.215 82.6262 500.38 83.023C501.873 83.3666 503.191 84.2426 504.087 85.4874C505.719 87.5815 507.203 89.7867 508.529 92.0872C510.397 95.2596 517.669 106.958 518.546 108.204L520.697 111.037H536.855L536.94 107.723ZM511.727 64.8381C511.925 74.1855 506.775 76.1683 506.577 76.1683C502.762 77.834 498.626 78.6368 494.466 78.5193H490.957V51.7518H494.466C498.724 51.5857 502.958 52.4607 506.803 54.301C510.482 56.0572 511.868 60.8725 511.727 64.8381Z" fill="black"></path><path fill-rule="evenodd" clip-rule="evenodd" d="M557.908 65.4044C558.672 52.5447 566.397 52.4031 572.056 52.5447H579.357V99.7065C579.374 100.657 579.289 101.607 579.102 102.539C579.001 103.512 578.626 104.437 578.019 105.204C577.413 105.971 576.601 106.55 575.679 106.873C573.838 107.395 571.932 107.653 570.019 107.638V110.81H600.75V107.808C598.146 107.808 593.308 107.354 592.119 104.182C591.669 102.735 591.468 101.221 591.525 99.7065V52.5447H600.156C601.99 52.514 603.819 52.7428 605.589 53.2245C607.555 53.8176 609.217 55.1466 610.229 56.9351C611.752 59.5254 612.653 62.4344 612.861 65.4328H616.228V48.4375H554.71V65.4328L557.908 65.4044Z" fill="black"></path><path fill-rule="evenodd" clip-rule="evenodd" d="M698.658 107.779C697.077 107.779 695.517 107.41 694.102 106.702C692.798 106.017 691.754 104.922 691.131 103.586C689.967 101.265 688.927 98.8817 688.018 96.4483L668.805 47.332H665.069L646.931 94.9188C645.956 97.6353 644.744 100.261 643.309 102.765C642.609 104.263 641.498 105.53 640.105 106.418C638.711 107.306 637.094 107.778 635.442 107.779V110.951H656.184V107.779C654.401 107.779 650.751 107.495 649.534 105.484C648.838 103.787 648.838 101.884 649.534 100.187L652.081 93.1626H673.474L676.388 101.15C676.783 102.122 676.985 103.161 676.983 104.21C677.071 104.903 676.901 105.605 676.504 106.18C676.107 106.755 675.511 107.163 674.832 107.325C673.168 107.75 671.455 107.95 669.738 107.92V111.064H698.545L698.658 107.779ZM672.115 89.8202H653.354L662.126 66.5084H662.919L672.115 89.8202Z" fill="black"></path><path fill-rule="evenodd" clip-rule="evenodd" d="M770.675 90.8397C770.452 92.5514 770.073 94.239 769.543 95.8816C768.747 98.3916 767.31 100.65 765.374 102.434C763.439 104.217 761.071 105.464 758.507 106.05C754.4 106.868 750.2 107.106 746.028 106.759C739.265 106.362 739.35 101.405 739.491 96.3065V59.7384C739.491 56.7075 739.859 53.5351 743.198 52.4871C745.024 51.8916 746.937 51.6044 748.857 51.6373V48.4648H717.985V51.6373C720.617 51.6373 725.456 52.0622 726.644 55.2346C727.083 56.6941 727.284 58.2149 727.238 59.7384V99.7056C727.233 100.657 727.139 101.605 726.955 102.538C726.854 103.511 726.479 104.436 725.872 105.203C725.266 105.97 724.454 106.549 723.531 106.872C721.691 107.396 719.785 107.654 717.872 107.637V110.809H773.391L773.787 90.6981L770.675 90.8397Z" fill="black"></path><path d="M305.147 125.677V132.805H313.683V135.368H305.147V144.393H301.976V123.114H315.165V125.677H305.147ZM330.203 144.393H327.032V123.114H330.203V144.393ZM361.178 123.114V144.393H359.578C359.331 144.393 359.124 144.348 358.956 144.259C358.798 144.17 358.635 144.027 358.467 143.829L346.449 128.285C346.469 128.552 346.484 128.814 346.494 129.071C346.513 129.327 346.523 129.569 346.523 129.797V144.393H343.752V123.114H345.382C345.659 123.114 345.866 123.148 346.005 123.217C346.143 123.277 346.296 123.42 346.464 123.647L358.511 139.206C358.482 138.92 358.457 138.643 358.437 138.376C358.427 138.1 358.422 137.843 358.422 137.606V123.114H361.178ZM386.047 136.465L382.891 128.211C382.664 127.648 382.436 126.937 382.209 126.077C382.101 126.502 381.987 126.897 381.868 127.263C381.76 127.628 381.651 127.954 381.542 128.241L378.401 136.465H386.047ZM392.286 144.393H389.855C389.579 144.393 389.352 144.323 389.174 144.185C388.996 144.047 388.868 143.869 388.788 143.652L386.907 138.717H377.527L375.645 143.652C375.576 143.839 375.447 144.012 375.259 144.17C375.072 144.318 374.845 144.393 374.578 144.393H372.148L380.624 123.114H383.81L392.286 144.393ZM420.667 123.114V144.393H419.066C418.819 144.393 418.612 144.348 418.444 144.259C418.286 144.17 418.123 144.027 417.955 143.829L405.937 128.285C405.957 128.552 405.972 128.814 405.982 129.071C406.002 129.327 406.011 129.569 406.011 129.797V144.393H403.24V123.114H404.87C405.147 123.114 405.355 123.148 405.493 123.217C405.631 123.277 405.784 123.42 405.952 123.647L417.999 139.206C417.97 138.92 417.945 138.643 417.925 138.376C417.915 138.1 417.91 137.843 417.91 137.606V123.114H420.667ZM449.092 139.829C449.27 139.829 449.423 139.898 449.551 140.036L450.796 141.399C449.927 142.427 448.865 143.222 447.61 143.785C446.365 144.348 444.864 144.63 443.105 144.63C441.564 144.63 440.166 144.363 438.912 143.829C437.667 143.296 436.6 142.55 435.711 141.592C434.832 140.634 434.15 139.488 433.666 138.154C433.182 136.82 432.94 135.353 432.94 133.753C432.94 132.153 433.192 130.686 433.696 129.352C434.209 128.018 434.926 126.872 435.844 125.914C436.763 124.956 437.86 124.21 439.134 123.677C440.418 123.143 441.836 122.877 443.387 122.877C444.898 122.877 446.242 123.123 447.417 123.617C448.593 124.111 449.615 124.768 450.485 125.588L449.447 127.055C449.378 127.164 449.289 127.253 449.181 127.322C449.082 127.391 448.949 127.426 448.781 127.426C448.593 127.426 448.371 127.332 448.114 127.144C447.867 126.956 447.536 126.749 447.121 126.522C446.716 126.285 446.212 126.072 445.609 125.885C445.007 125.697 444.256 125.603 443.357 125.603C442.3 125.603 441.332 125.791 440.453 126.166C439.574 126.532 438.813 127.065 438.171 127.767C437.538 128.458 437.045 129.313 436.689 130.33C436.343 131.338 436.17 132.479 436.17 133.753C436.17 135.047 436.353 136.198 436.719 137.206C437.084 138.213 437.588 139.068 438.23 139.769C438.872 140.471 439.628 141.004 440.497 141.37C441.367 141.735 442.305 141.918 443.313 141.918C443.925 141.918 444.473 141.883 444.957 141.814C445.451 141.735 445.901 141.622 446.306 141.473C446.721 141.325 447.111 141.138 447.477 140.91C447.842 140.673 448.203 140.392 448.558 140.066C448.637 139.997 448.721 139.942 448.81 139.903C448.899 139.853 448.993 139.829 449.092 139.829ZM465.437 144.393H462.266V123.114H465.437V144.393ZM490.292 136.465L487.136 128.211C486.909 127.648 486.682 126.937 486.454 126.077C486.346 126.502 486.232 126.897 486.113 127.263C486.005 127.628 485.896 127.954 485.787 128.241L482.646 136.465H490.292ZM496.531 144.393H494.101C493.824 144.393 493.597 144.323 493.419 144.185C493.241 144.047 493.113 143.869 493.034 143.652L491.152 138.717H481.772L479.89 143.652C479.821 143.839 479.692 144.012 479.505 144.17C479.317 144.318 479.09 144.393 478.823 144.393H476.393L484.869 123.114H488.055L496.531 144.393ZM519.666 141.74V144.393H507.486V123.114H510.642V141.74H519.666ZM556.943 126.581C556.844 126.749 556.741 126.872 556.632 126.952C556.523 127.031 556.385 127.07 556.217 127.07C556.039 127.07 555.837 126.991 555.609 126.833C555.382 126.665 555.096 126.482 554.75 126.285C554.414 126.077 554.009 125.894 553.535 125.736C553.061 125.568 552.493 125.485 551.831 125.485C551.208 125.485 550.66 125.568 550.186 125.736C549.722 125.894 549.331 126.117 549.015 126.403C548.699 126.68 548.457 127.011 548.289 127.396C548.131 127.771 548.052 128.181 548.052 128.626C548.052 129.199 548.195 129.673 548.482 130.049C548.778 130.424 549.163 130.745 549.638 131.012C550.112 131.278 550.65 131.511 551.253 131.708C551.855 131.906 552.473 132.113 553.105 132.331C553.737 132.538 554.355 132.78 554.957 133.057C555.56 133.333 556.098 133.684 556.573 134.109C557.047 134.524 557.427 135.037 557.714 135.65C558.01 136.252 558.158 136.993 558.158 137.873C558.158 138.811 557.995 139.69 557.669 140.51C557.353 141.33 556.889 142.046 556.276 142.659C555.664 143.271 554.908 143.755 554.009 144.111C553.12 144.457 552.107 144.63 550.971 144.63C550.29 144.63 549.628 144.561 548.986 144.422C548.344 144.294 547.736 144.111 547.163 143.874C546.59 143.627 546.052 143.336 545.548 143C545.054 142.654 544.609 142.269 544.214 141.844L545.118 140.332C545.207 140.214 545.311 140.115 545.429 140.036C545.558 139.957 545.701 139.917 545.859 139.917C546.066 139.917 546.304 140.026 546.57 140.243C546.847 140.461 547.183 140.703 547.578 140.97C547.983 141.226 548.462 141.464 549.015 141.681C549.578 141.898 550.26 142.007 551.06 142.007C551.712 142.007 552.295 141.923 552.809 141.755C553.322 141.577 553.752 141.33 554.098 141.014C554.454 140.688 554.725 140.298 554.913 139.843C555.101 139.389 555.194 138.885 555.194 138.332C555.194 137.71 555.051 137.201 554.765 136.806C554.478 136.41 554.098 136.08 553.624 135.813C553.15 135.546 552.611 135.319 552.009 135.131C551.406 134.943 550.789 134.751 550.156 134.553C549.524 134.346 548.907 134.109 548.304 133.842C547.701 133.575 547.163 133.23 546.689 132.805C546.215 132.37 545.834 131.832 545.548 131.19C545.261 130.538 545.118 129.737 545.118 128.789C545.118 128.028 545.266 127.292 545.563 126.581C545.859 125.87 546.289 125.242 546.852 124.699C547.425 124.146 548.126 123.706 548.956 123.38C549.786 123.044 550.734 122.877 551.801 122.877C552.996 122.877 554.093 123.069 555.091 123.454C556.098 123.83 556.973 124.373 557.714 125.084L556.943 126.581ZM590.179 133.753C590.179 135.344 589.922 136.806 589.408 138.139C588.904 139.463 588.188 140.609 587.259 141.577C586.331 142.535 585.22 143.281 583.925 143.815C582.631 144.348 581.194 144.615 579.613 144.615C578.043 144.615 576.605 144.348 575.301 143.815C574.007 143.281 572.896 142.535 571.967 141.577C571.048 140.609 570.332 139.463 569.818 138.139C569.305 136.806 569.048 135.344 569.048 133.753C569.048 132.172 569.305 130.715 569.818 129.382C570.332 128.048 571.048 126.902 571.967 125.944C572.896 124.976 574.007 124.225 575.301 123.692C576.605 123.148 578.043 122.877 579.613 122.877C581.194 122.877 582.631 123.148 583.925 123.692C585.22 124.225 586.331 124.976 587.259 125.944C588.188 126.902 588.904 128.048 589.408 129.382C589.922 130.715 590.179 132.172 590.179 133.753ZM586.948 133.753C586.948 132.489 586.775 131.353 586.43 130.345C586.084 129.337 585.59 128.483 584.948 127.781C584.316 127.08 583.545 126.542 582.636 126.166C581.737 125.791 580.73 125.603 579.613 125.603C578.497 125.603 577.484 125.791 576.576 126.166C575.677 126.542 574.906 127.08 574.264 127.781C573.622 128.483 573.128 129.337 572.782 130.345C572.436 131.353 572.263 132.489 572.263 133.753C572.263 135.027 572.436 136.168 572.782 137.176C573.128 138.174 573.622 139.023 574.264 139.725C574.906 140.426 575.677 140.965 576.576 141.34C577.484 141.706 578.497 141.888 579.613 141.888C580.73 141.888 581.737 141.706 582.636 141.34C583.545 140.965 584.316 140.426 584.948 139.725C585.59 139.023 586.084 138.174 586.43 137.176C586.775 136.168 586.948 135.027 586.948 133.753ZM614.621 141.74V144.393H602.44V123.114H605.597V141.74H614.621ZM633.566 141.859C634.415 141.859 635.176 141.715 635.848 141.429C636.519 141.142 637.087 140.742 637.552 140.229C638.016 139.705 638.372 139.088 638.619 138.376C638.866 137.655 638.989 136.86 638.989 135.991V123.114H642.13V135.991C642.13 137.235 641.933 138.386 641.538 139.443C641.143 140.5 640.575 141.414 639.834 142.185C639.093 142.955 638.194 143.558 637.137 143.992C636.08 144.427 634.889 144.644 633.566 144.644C632.242 144.644 631.051 144.427 629.994 143.992C628.937 143.558 628.038 142.955 627.297 142.185C626.557 141.414 625.988 140.5 625.593 139.443C625.198 138.386 625.001 137.235 625.001 135.991V123.114H628.157V135.976C628.157 136.845 628.275 137.64 628.513 138.362C628.759 139.083 629.115 139.705 629.579 140.229C630.044 140.742 630.612 141.142 631.284 141.429C631.955 141.715 632.716 141.859 633.566 141.859ZM669.924 125.751H663.167V144.393H660.025V125.751H653.238V123.114H669.924V125.751ZM684.454 144.393H681.283V123.114H684.454V144.393ZM717.83 133.753C717.83 135.344 717.573 136.806 717.059 138.139C716.555 139.463 715.839 140.609 714.91 141.577C713.982 142.535 712.87 143.281 711.576 143.815C710.282 144.348 708.845 144.615 707.264 144.615C705.694 144.615 704.256 144.348 702.952 143.815C701.658 143.281 700.547 142.535 699.618 141.577C698.699 140.609 697.983 139.463 697.469 138.139C696.956 136.806 696.699 135.344 696.699 133.753C696.699 132.172 696.956 130.715 697.469 129.382C697.983 128.048 698.699 126.902 699.618 125.944C700.547 124.976 701.658 124.225 702.952 123.692C704.256 123.148 705.694 122.877 707.264 122.877C708.845 122.877 710.282 123.148 711.576 123.692C712.87 124.225 713.982 124.976 714.91 125.944C715.839 126.902 716.555 128.048 717.059 129.382C717.573 130.715 717.83 132.172 717.83 133.753ZM714.599 133.753C714.599 132.489 714.426 131.353 714.081 130.345C713.735 129.337 713.241 128.483 712.599 127.781C711.967 127.08 711.196 126.542 710.287 126.166C709.388 125.791 708.381 125.603 707.264 125.603C706.148 125.603 705.135 125.791 704.227 126.166C703.328 126.542 702.557 127.08 701.915 127.781C701.273 128.483 700.779 129.337 700.433 130.345C700.087 131.353 699.914 132.489 699.914 133.753C699.914 135.027 700.087 136.168 700.433 137.176C700.779 138.174 701.273 139.023 701.915 139.725C702.557 140.426 703.328 140.965 704.227 141.34C705.135 141.706 706.148 141.888 707.264 141.888C708.381 141.888 709.388 141.706 710.287 141.34C711.196 140.965 711.967 140.426 712.599 139.725C713.241 139.023 713.735 138.174 714.081 137.176C714.426 136.168 714.599 135.027 714.599 133.753ZM747.518 123.114V144.393H745.917C745.67 144.393 745.463 144.348 745.295 144.259C745.137 144.17 744.974 144.027 744.806 143.829L732.788 128.285C732.808 128.552 732.823 128.814 732.833 129.071C732.852 129.327 732.862 129.569 732.862 129.797V144.393H730.091V123.114H731.721C731.998 123.114 732.205 123.148 732.344 123.217C732.482 123.277 732.635 123.42 732.803 123.647L744.85 139.206C744.821 138.92 744.796 138.643 744.776 138.376C744.766 138.1 744.761 137.843 744.761 137.606V123.114H747.518ZM772.09 126.581C771.991 126.749 771.887 126.872 771.779 126.952C771.67 127.031 771.532 127.07 771.364 127.07C771.186 127.07 770.983 126.991 770.756 126.833C770.529 126.665 770.243 126.482 769.897 126.285C769.561 126.077 769.156 125.894 768.682 125.736C768.207 125.568 767.639 125.485 766.978 125.485C766.355 125.485 765.807 125.568 765.333 125.736C764.868 125.894 764.478 126.117 764.162 126.403C763.846 126.68 763.604 127.011 763.436 127.396C763.278 127.771 763.199 128.181 763.199 128.626C763.199 129.199 763.342 129.673 763.629 130.049C763.925 130.424 764.31 130.745 764.784 131.012C765.259 131.278 765.797 131.511 766.4 131.708C767.002 131.906 767.62 132.113 768.252 132.331C768.884 132.538 769.502 132.78 770.104 133.057C770.707 133.333 771.245 133.684 771.719 134.109C772.194 134.524 772.574 135.037 772.86 135.65C773.157 136.252 773.305 136.993 773.305 137.873C773.305 138.811 773.142 139.69 772.816 140.51C772.5 141.33 772.036 142.046 771.423 142.659C770.811 143.271 770.055 143.755 769.156 144.111C768.267 144.457 767.254 144.63 766.118 144.63C765.436 144.63 764.775 144.561 764.132 144.422C763.49 144.294 762.883 144.111 762.31 143.874C761.737 143.627 761.198 143.336 760.695 143C760.201 142.654 759.756 142.269 759.361 141.844L760.265 140.332C760.354 140.214 760.458 140.115 760.576 140.036C760.705 139.957 760.848 139.917 761.006 139.917C761.213 139.917 761.45 140.026 761.717 140.243C761.994 140.461 762.33 140.703 762.725 140.97C763.13 141.226 763.609 141.464 764.162 141.681C764.725 141.898 765.407 142.007 766.207 142.007C766.859 142.007 767.442 141.923 767.956 141.755C768.469 141.577 768.899 141.33 769.245 141.014C769.6 140.688 769.872 140.298 770.06 139.843C770.247 139.389 770.341 138.885 770.341 138.332C770.341 137.71 770.198 137.201 769.912 136.806C769.625 136.41 769.245 136.08 768.771 135.813C768.296 135.546 767.758 135.319 767.155 135.131C766.553 134.943 765.935 134.751 765.303 134.553C764.671 134.346 764.053 134.109 763.451 133.842C762.848 133.575 762.31 133.23 761.836 132.805C761.361 132.37 760.981 131.832 760.695 131.19C760.408 130.538 760.265 129.737 760.265 128.789C760.265 128.028 760.413 127.292 760.709 126.581C761.006 125.87 761.436 125.242 761.999 124.699C762.572 124.146 763.273 123.706 764.103 123.38C764.933 123.044 765.881 122.877 766.948 122.877C768.143 122.877 769.24 123.069 770.238 123.454C771.245 123.83 772.12 124.373 772.86 125.084L772.09 126.581Z" fill="black"></path></g></g><defs><clipPath id="clip0"><rect width="782" height="168" fill="white"></rect></clipPath><clipPath id="clip1"><rect y="0.992188" width="782" height="166.015" fill="white"></rect></clipPath></defs></svg> 