<?xml version="1.0" encoding="UTF-8"?> <svg xmlns="http://www.w3.org/2000/svg" width="782" height="186" viewBox="0 0 782 186" fill="none"><path d="M268.836 52.585V57.5886H225.053V92.5796H262.959V97.5833H225.053V135.802H219.004V52.585H268.836Z" fill="black"></path><path d="M316.962 131.491C320.96 131.491 324.531 130.799 327.688 129.404C330.845 128.009 333.518 126.083 335.707 123.616C337.897 121.149 339.579 118.232 340.731 114.889C341.883 111.534 342.459 107.925 342.459 104.04V52.585H348.45V104.04C348.45 108.628 347.725 112.906 346.273 116.883C344.821 120.861 342.736 124.331 340.017 127.294C337.297 130.257 333.979 132.574 330.085 134.258C326.191 135.941 321.812 136.782 316.95 136.782C312.088 136.782 307.71 135.941 303.815 134.258C299.921 132.574 296.603 130.245 293.884 127.294C291.165 124.331 289.079 120.861 287.627 116.883C286.176 112.906 285.45 108.617 285.45 104.04V52.585H291.499V103.982C291.499 107.867 292.075 111.476 293.227 114.831C294.379 118.186 296.05 121.091 298.216 123.558C300.382 126.026 303.055 127.974 306.212 129.381C309.392 130.787 312.964 131.491 316.962 131.491Z" fill="black"></path><path d="M378.43 130.672H417.857V135.791H372.427V52.585H378.418V130.672H378.43Z" fill="black"></path><path d="M438.538 130.672H477.966V135.791H432.547V52.585H438.538V130.672Z" fill="black"></path><path d="M548.363 121.783C548.755 121.783 549.089 121.921 549.366 122.198L551.716 124.723C549.988 126.567 548.11 128.216 546.07 129.692C544.031 131.168 541.807 132.413 539.399 133.45C536.991 134.488 534.341 135.295 531.461 135.86C528.58 136.425 525.412 136.713 521.967 136.713C516.206 136.713 510.929 135.699 506.125 133.681C501.32 131.663 497.207 128.804 493.785 125.092C490.352 121.391 487.679 116.906 485.766 111.66C483.842 106.403 482.885 100.569 482.885 94.136C482.885 87.8295 483.876 82.0649 485.858 76.8537C487.84 71.6426 490.617 67.1577 494.2 63.4223C497.783 59.6753 502.069 56.7815 507.07 54.7177C512.07 52.654 517.577 51.6279 523.615 51.6279C526.633 51.6279 529.399 51.8585 531.899 52.3082C534.41 52.7578 536.749 53.4034 538.915 54.245C541.093 55.0867 543.132 56.1358 545.057 57.3925C546.981 58.6492 548.859 60.1019 550.702 61.739L548.882 64.3792C548.571 64.8519 548.075 65.0825 547.418 65.0825C547.061 65.0825 546.612 64.8749 546.07 64.4599C545.517 64.0448 544.826 63.5376 543.985 62.9265C543.144 62.3155 542.118 61.6583 540.932 60.932C539.733 60.2056 538.316 59.5369 536.669 58.9374C535.021 58.3264 533.12 57.8191 530.965 57.404C528.811 56.989 526.357 56.7815 523.615 56.7815C518.557 56.7815 513.913 57.6577 509.685 59.3986C505.456 61.1395 501.816 63.6298 498.751 66.8695C495.686 70.1092 493.313 74.0291 491.607 78.6292C489.902 83.2409 489.05 88.3944 489.05 94.1244C489.05 100.004 489.891 105.262 491.573 109.885C493.255 114.508 495.594 118.416 498.567 121.61C501.539 124.804 505.065 127.259 509.12 128.966C513.176 130.672 517.566 131.525 522.313 131.525C525.285 131.525 527.947 131.329 530.274 130.937C532.602 130.545 534.745 129.957 536.703 129.173C538.662 128.389 540.482 127.432 542.165 126.291C543.847 125.149 545.517 123.824 547.153 122.29C547.349 122.129 547.534 122.002 547.706 121.91C547.925 121.841 548.133 121.783 548.363 121.783Z" fill="black"></path><path d="M601.374 131.491C605.373 131.491 608.944 130.799 612.101 129.404C615.258 128.009 617.931 126.083 620.12 123.616C622.309 121.149 623.992 118.232 625.144 114.889C626.296 111.534 626.872 107.925 626.872 104.04V52.585H632.863V104.04C632.863 108.628 632.137 112.906 630.686 116.883C629.234 120.861 627.149 124.331 624.429 127.294C621.71 130.257 618.392 132.574 614.498 134.258C610.603 135.941 606.225 136.782 601.363 136.782C596.501 136.782 592.123 135.941 588.228 134.258C584.334 132.574 581.016 130.245 578.297 127.294C575.577 124.331 573.492 120.861 572.04 116.883C570.589 112.906 569.863 108.617 569.863 104.04V52.585H575.912V103.982C575.912 107.867 576.488 111.476 577.64 114.831C578.792 118.186 580.463 121.091 582.64 123.558C584.818 126.026 587.479 127.974 590.636 129.381C593.805 130.787 597.376 131.491 601.374 131.491Z" fill="black"></path><path d="M656.84 135.779V52.585H680.759C685.494 52.585 689.608 53.0577 693.064 53.9915C696.532 54.9369 699.401 56.3089 701.671 58.142C703.941 59.9636 705.634 62.1888 706.752 64.8174C707.869 67.4461 708.422 70.4206 708.422 73.7525C708.422 75.943 708.042 78.0644 707.27 80.1051C706.51 82.1457 705.404 84.025 703.952 85.7544C702.5 87.4837 700.726 88.9825 698.629 90.2507C696.532 91.5305 694.136 92.4989 691.428 93.1561C697.972 94.1361 703.007 96.3151 706.533 99.6816C710.059 103.048 711.821 107.498 711.821 113.032C711.821 116.56 711.199 119.731 709.943 122.555C708.687 125.38 706.867 127.767 704.482 129.727C702.097 131.687 699.159 133.185 695.668 134.223C692.177 135.261 688.225 135.779 683.801 135.779H656.84V135.779ZM662.831 91.5074H680.874C684.711 91.5074 687.995 91.0232 690.714 90.0432C693.433 89.0632 695.668 87.772 697.408 86.1579C699.148 84.5553 700.438 82.7337 701.256 80.6931C702.074 78.6524 702.489 76.5541 702.489 74.3981C702.489 68.795 700.714 64.5522 697.166 61.6699C693.617 58.7877 688.144 57.3465 680.747 57.3465H662.82V91.5074H662.831ZM662.831 95.9116V130.96H683.697C691.025 130.96 696.544 129.381 700.265 126.222C703.987 123.063 705.853 118.624 705.853 112.906C705.853 110.277 705.358 107.913 704.355 105.815C703.353 103.717 701.913 101.93 700.035 100.466C698.157 99.0014 695.841 97.8715 693.099 97.0875C690.356 96.3035 687.246 95.9116 683.755 95.9116H662.831Z" fill="black"></path><path d="M782 52.585V57.5886H738.218V91.2192H774.649V96.096H738.218V130.787H782V135.779H732.169V52.585H782Z" fill="black"></path><path d="M74.8449 184.847C71.8953 184.847 69.0149 183.637 66.9525 181.515L11.9595 128.527C10.7267 127.259 10.2082 125.495 10.5423 123.8C10.8764 122.094 12.0286 120.676 13.6301 119.984L80.1794 90.412C81.5735 89.8125 83.0368 89.5127 84.5461 89.5127C87.5072 89.5127 90.2954 90.6771 92.3809 92.787L145.911 147.7C147.109 148.922 147.65 150.663 147.339 152.358C147.028 154.053 145.911 155.483 144.344 156.197L79.3844 183.867C77.9672 184.513 76.4348 184.847 74.8449 184.847Z" fill="black"></path><path d="M84.5346 90.6652C87.1154 90.6652 89.6617 91.6798 91.5513 93.5936L145.081 148.507C147.097 150.548 146.464 153.96 143.86 155.148L78.935 182.795C77.6216 183.394 76.239 183.683 74.8564 183.683C72.2525 183.683 69.6831 182.645 67.7936 180.696L12.7775 127.685C10.7612 125.622 11.4525 122.174 14.1025 121.033L80.6633 91.4607C81.8961 90.9304 83.2211 90.6652 84.5346 90.6652ZM84.5346 88.3594C82.8755 88.3594 81.2509 88.6937 79.73 89.3509L13.1462 118.935C11.2336 119.765 9.82795 121.494 9.41317 123.569C8.99839 125.645 9.63209 127.789 11.1069 129.299L11.1299 129.322L11.1529 129.346L66.146 182.334C68.4157 184.651 71.5842 185.988 74.8333 185.988C76.5846 185.988 78.2783 185.619 79.8683 184.893L144.747 157.269C146.706 156.381 148.077 154.629 148.457 152.565C148.837 150.502 148.18 148.38 146.706 146.881L93.1989 91.9911C90.883 89.6506 87.8183 88.3594 84.5346 88.3594Z" fill="black"></path><path d="M158.896 135.745C157.49 135.745 156.165 135.191 155.174 134.177L101.011 77.4419C99.7432 76.1622 99.2247 74.329 99.6395 72.5535L111.645 9.37372C112.21 6.92954 114.33 5.25781 116.807 5.25781C118.282 5.25781 119.641 5.85733 120.655 6.9526L175.003 64.8982C176.178 66.1664 176.65 67.9188 176.293 69.6021L164.08 131.571C163.527 134.039 161.407 135.745 158.896 135.745Z" fill="black"></path><path d="M116.795 6.41033C117.867 6.41033 118.961 6.82538 119.791 7.73618L174.139 65.6933C175.049 66.6848 175.418 68.0452 175.141 69.3596L162.928 131.352C162.49 133.393 160.716 134.603 158.884 134.603C157.859 134.603 156.81 134.223 155.981 133.381L101.829 76.6691C100.838 75.666 100.423 74.2133 100.746 72.8414L112.774 9.59237C113.247 7.57477 114.998 6.41033 116.795 6.41033ZM116.795 4.10449C113.788 4.10449 111.207 6.14515 110.528 9.07356L110.516 9.11968L110.504 9.1658L98.4989 72.3456C98.015 74.49 98.6487 76.7036 100.193 78.2716L154.31 134.961C155.554 136.217 157.167 136.897 158.884 136.897C161.937 136.897 164.53 134.811 165.175 131.836L177.399 69.8092C177.837 67.8031 177.25 65.6702 175.832 64.1253L121.485 6.15668C120.263 4.83083 118.593 4.10449 116.795 4.10449Z" fill="black"></path><path d="M6.40604 107.141C4.82757 107.141 3.28366 106.392 2.28128 105.123C1.27889 103.867 0.921716 102.241 1.29041 100.662L19.0684 40.7099C19.4255 39.1534 20.5662 37.793 22.0986 37.1358L91.8278 1.62602C92.5652 1.3032 93.268 1.15332 93.9824 1.15332C95.5724 1.15332 97.1048 1.90272 98.1072 3.17092C99.1095 4.4276 99.4667 6.05321 99.098 7.63271L88.9935 69.6366C88.6018 71.3313 87.4611 72.6918 85.9287 73.3605L8.50299 106.703C7.83473 106.991 7.12038 107.141 6.40604 107.141Z" fill="black"></path><path d="M93.9824 2.30583C96.4826 2.30583 98.6141 4.65778 97.9804 7.36714L87.8643 69.4401C87.5648 70.7084 86.6891 71.769 85.4793 72.2879L8.04208 105.642C7.50056 105.872 6.936 105.988 6.406 105.988C3.90579 105.988 1.77428 103.636 2.40797 100.926L20.1744 41.0438C20.474 39.7756 21.3496 38.7149 22.5594 38.1961L92.3463 2.65171C92.8993 2.4096 93.4524 2.30583 93.9824 2.30583ZM93.9824 0C93.1067 0 92.2541 0.184467 91.4361 0.530342L91.3669 0.564929L91.2978 0.599516L21.5685 36.1093C19.7712 36.9164 18.4231 38.5189 17.9507 40.4443L0.207332 100.269L0.184288 100.338L0.172767 100.407C-0.276579 102.333 0.161245 104.316 1.38254 105.849C2.60384 107.383 4.48188 108.305 6.41752 108.305C7.29317 108.305 8.14578 108.12 8.96382 107.775L86.4011 74.4208C88.2676 73.6137 89.6502 71.9535 90.1111 69.982L90.1341 69.9013L90.1456 69.8206L100.25 7.81677C100.665 5.92599 100.216 3.97756 99.0173 2.46724C97.796 0.910804 95.918 0 93.9824 0Z" fill="black"></path></svg> 